<svg xmlns="http://www.w3.org/2000/svg" xmlns:xlink="http://www.w3.org/1999/xlink" width="1280" zoomAndPan="magnify" viewBox="0 0 960 540.000001" height="720" preserveAspectRatio="xMidYMid meet" version="1.0"><defs><clipPath id="8661e84c0d"><path d="M 0.886719 0 L 959.113281 0 L 959.113281 539 L 0.886719 539 Z M 0.886719 0 " clip-rule="nonzero"/></clipPath></defs><g clip-path="url(#8661e84c0d)"><path fill="#ffffff" d="M 0.886719 0 L 959.113281 0 L 959.113281 546.488281 L 0.886719 546.488281 Z M 0.886719 0 " fill-opacity="1" fill-rule="nonzero"/><path fill="#ffffff" d="M 0.886719 0 L 959.113281 0 L 959.113281 539 L 0.886719 539 Z M 0.886719 0 " fill-opacity="1" fill-rule="nonzero"/><path fill="#92c7a3" d="M 0.886719 0 L 959.113281 0 L 959.113281 539 L 0.886719 539 Z M 0.886719 0 " fill-opacity="1" fill-rule="nonzero"/></g><path stroke-linecap="butt" transform="matrix(2.395564, 0, 0, 2.395564, 161.214804, 156.909441)" fill="none" stroke-linejoin="miter" d="M 51.059568 33.560054 L 67.476633 33.560054 C 68.301726 33.560054 68.918099 33.586144 69.325754 33.638324 C 69.733409 33.690504 70.203027 33.860088 70.732978 34.147077 C 71.696673 34.641154 72.177705 36.030441 72.177705 38.313307 C 72.177705 40.795108 71.517305 42.249619 70.198135 42.675211 C 69.599698 42.892083 68.675137 42.999704 67.426084 42.999704 L 46.306315 42.999704 C 43.824514 42.999704 42.366741 42.322997 41.931366 40.969584 C 41.724278 40.40539 41.619918 39.497135 41.619918 38.248082 L 41.619918 8.60181 C 41.619918 6.786932 41.954195 5.554185 42.622748 4.903568 C 43.299455 4.243168 44.584382 3.913783 46.4759 3.913783 L 67.476633 3.913783 C 68.301726 3.913783 68.918099 3.939873 69.325754 3.992052 C 69.733409 4.044232 70.203027 4.213816 70.732978 4.499175 C 71.696673 4.994883 72.177705 6.379278 72.177705 8.65399 C 72.177705 11.143944 71.517305 12.603348 70.198135 13.027308 C 69.599698 13.244181 68.675137 13.353432 67.426084 13.353432 L 51.059568 13.353432 L 51.059568 18.731211 L 61.617821 18.731211 C 62.434761 18.731211 63.046243 18.760562 63.453897 18.822526 C 63.861552 18.874706 64.336062 19.039398 64.874166 19.316603 C 65.828078 19.820464 66.305849 21.20812 66.305849 23.482833 C 66.305849 25.974418 65.632404 27.432191 64.287143 27.857782 C 63.680553 28.066501 62.755993 28.170861 61.513462 28.170861 L 51.059568 28.170861 Z M 111.317437 4.499175 C 113.417673 5.524834 114.469422 6.661375 114.469422 7.910428 C 114.469422 8.474622 114.20037 9.325805 113.660635 10.462346 L 98.949197 40.330381 C 98.557848 41.111448 97.959412 41.745758 97.152256 42.231682 C 96.353253 42.709454 95.52816 42.947524 94.678608 42.947524 L 94.143765 42.947524 C 93.258339 42.947524 92.412048 42.709454 91.604892 42.231682 C 90.80752 41.745758 90.212344 41.111448 89.820996 40.330381 L 75.109557 10.462346 C 74.571453 9.325805 74.302401 8.474622 74.302401 7.910428 C 74.302401 6.661375 75.352519 5.524834 77.452756 4.499175 C 78.62517 3.892585 79.523641 3.587659 80.148168 3.587659 C 80.772695 3.587659 81.242313 3.662667 81.553761 3.809423 C 81.874993 3.948026 82.178288 4.19588 82.465276 4.551354 C 82.786508 4.976946 83.076758 5.449825 83.337657 5.971623 C 83.606709 6.483637 84.293199 7.959347 85.395497 10.397121 C 86.497795 12.828373 87.678363 15.414534 88.9372 18.157234 C 90.204191 20.891781 91.397803 23.477941 92.516408 25.917346 C 93.636642 28.348598 94.270953 29.706903 94.417709 29.992261 L 105.081952 6.635285 C 105.367311 5.958578 105.615165 5.423735 105.823884 5.034017 C 106.466347 4.070322 107.247413 3.587659 108.167082 3.587659 C 109.094904 3.587659 110.146653 3.892585 111.317437 4.499175 Z M 126.837662 33.560054 L 143.256358 33.560054 C 144.081451 33.560054 144.697824 33.586144 145.105479 33.638324 C 145.513133 33.690504 145.982752 33.860088 146.511072 34.147077 C 147.474767 34.641154 147.95743 36.030441 147.95743 38.313307 C 147.95743 40.795108 147.29703 42.249619 145.97786 42.675211 C 145.379423 42.892083 144.454862 42.999704 143.204178 42.999704 L 122.08604 42.999704 C 119.604239 42.999704 118.144836 42.322997 117.711091 40.969584 C 117.502372 40.40539 117.398012 39.497135 117.398012 38.248082 L 117.398012 8.60181 C 117.398012 6.786932 117.732289 5.554185 118.400843 4.903568 C 119.07918 4.243168 120.362477 3.913783 122.255624 3.913783 L 143.256358 3.913783 C 144.081451 3.913783 144.697824 3.939873 145.105479 3.992052 C 145.513133 4.044232 145.982752 4.213816 146.511072 4.499175 C 147.474767 4.994883 147.95743 6.379278 147.95743 8.65399 C 147.95743 11.143944 147.29703 12.603348 145.97786 13.027308 C 145.379423 13.244181 144.454862 13.353432 143.204178 13.353432 L 126.837662 13.353432 L 126.837662 18.731211 L 137.397546 18.731211 C 138.212855 18.731211 138.825968 18.760562 139.233622 18.822526 C 139.641277 18.874706 140.114156 19.039398 140.65226 19.316603 C 141.607803 19.820464 142.085574 21.20812 142.085574 23.482833 C 142.085574 25.974418 141.412128 27.432191 140.066868 27.857782 C 139.458648 28.066501 138.534087 28.170861 137.293187 28.170861 L 126.837662 28.170861 Z M 176.667727 5.54114 C 177.006896 4.916613 177.514018 4.499175 178.190724 4.292086 C 178.869062 4.075214 179.710461 3.965962 180.716552 3.965962 C 181.732427 3.965962 182.552628 4.057277 183.177155 4.239906 C 183.803313 4.412752 184.263147 4.626363 184.558289 4.877478 C 184.861584 5.12044 185.08824 5.48896 185.234996 5.984668 C 185.443715 6.557015 185.548074 7.463639 185.548074 8.704539 L 185.548074 38.313307 C 185.548074 39.162859 185.521984 39.784124 185.469805 40.173842 C 185.417625 40.56519 185.248041 41.025025 184.961052 41.554976 C 184.466974 42.518671 183.082579 42.999704 180.807867 42.999704 C 179.420211 42.999704 178.456515 42.895344 177.918411 42.688256 C 177.38846 42.469753 176.944932 42.132215 176.589457 41.67238 C 168.596166 31.004875 163.335792 24.033982 160.809964 20.761331 L 160.809964 38.313307 C 160.809964 39.162859 160.778982 39.784124 160.718649 40.173842 C 160.666469 40.56519 160.501777 41.025025 160.222941 41.554976 C 159.720711 42.518671 158.331424 42.999704 156.056711 42.999704 C 153.852116 42.999704 152.501964 42.518671 152.007886 41.554976 C 151.720897 41.025025 151.552944 40.547254 151.500764 40.123293 C 151.448584 39.697702 151.422494 39.071544 151.422494 38.248082 L 151.422494 8.497451 C 151.422494 7.142407 151.592079 6.157513 151.929617 5.54114 C 152.268785 4.916613 152.772646 4.499175 153.439569 4.292086 C 154.117906 4.075214 154.990287 3.965962 156.056711 3.965962 C 157.124766 3.965962 157.966166 4.06543 158.582539 4.265996 C 159.208697 4.456779 159.645702 4.673651 159.898448 4.916613 C 160.037051 5.029126 160.444705 5.493852 161.121412 6.309161 C 168.630409 16.516832 173.64293 23.252916 176.160605 26.517414 L 176.160605 8.497451 C 176.160605 7.142407 176.330189 6.157513 176.667727 5.54114 Z M 192.370581 3.861603 L 222.029898 3.861603 C 223.166439 3.861603 223.999685 3.996944 224.529636 4.265996 C 225.06774 4.525265 225.423215 4.942703 225.597691 5.51505 C 225.78032 6.079244 225.870004 6.826067 225.870004 7.755519 C 225.870004 8.675188 225.78032 9.412228 225.597691 9.968268 C 225.423215 10.514526 225.124811 10.897721 224.69922 11.114593 C 224.056756 11.426041 223.150133 11.582581 221.977718 11.582581 L 211.783092 11.582581 L 211.783092 38.417666 C 211.783092 39.232975 211.757002 39.836304 211.704823 40.226022 C 211.652643 40.61737 211.492842 41.072313 211.22379 41.594111 C 210.962891 42.106125 210.493273 42.469753 209.816567 42.688256 C 209.13986 42.895344 208.249542 42.999704 207.147244 42.999704 C 206.044946 42.999704 205.164413 42.895344 204.505643 42.688256 C 203.853395 42.469753 203.393561 42.106125 203.124509 41.594111 C 202.855457 41.072313 202.695656 40.609217 202.643477 40.199932 C 202.591297 39.792277 202.565207 39.180796 202.565207 38.365486 L 202.565207 11.582581 L 192.318402 11.582581 C 191.181861 11.582581 190.343723 11.452131 189.805619 11.192863 C 189.275668 10.923811 188.920193 10.506372 188.737564 9.942179 C 188.564718 9.369832 188.476665 8.623008 188.476665 7.70334 C 188.476665 6.773887 188.564718 6.036848 188.737564 5.48896 C 188.920193 4.93455 189.22838 4.548093 189.662124 4.331221 C 190.296435 4.018142 191.198167 3.861603 192.370581 3.861603 Z M 192.370581 3.861603 " stroke="#2d2d29" stroke-width="1.533332" stroke-opacity="1" stroke-miterlimit="4"/><path stroke-linecap="butt" transform="matrix(2.395564, 0, 0, 2.395564, 161.214804, 156.909441)" fill="none" stroke-linejoin="miter" d="M 55.149158 50.913094 C 55.974251 50.913094 56.590625 50.939184 56.99828 50.991364 C 57.405934 51.043544 57.865768 51.213128 58.377783 51.500117 C 58.89958 51.777322 59.263208 52.255093 59.471928 52.9318 C 59.6888 53.608506 59.798051 54.516761 59.798051 55.653302 C 59.798051 56.789843 59.6888 57.698097 59.471928 58.374804 C 59.263208 59.05151 58.889797 59.52439 58.351693 59.793442 C 57.823372 60.054341 57.353754 60.214141 56.9461 60.276105 C 56.538445 60.326654 55.904135 60.352744 55.044799 60.352744 L 38.730463 60.352744 L 38.730463 65.730523 L 49.238167 65.730523 C 50.08935 65.730523 50.718768 65.761505 51.126423 65.821838 C 51.534078 65.874017 52.006957 66.03871 52.545061 66.315915 C 53.46473 66.854019 53.926195 68.261243 53.926195 70.534324 C 53.926195 73.025909 53.252749 74.501619 51.907489 74.961453 C 51.335142 75.135929 50.426888 75.222352 49.185987 75.222352 L 38.730463 75.222352 L 38.730463 85.312618 C 38.730463 86.163801 38.704373 86.783436 38.652193 87.174784 C 38.601644 87.564502 38.432059 88.025967 38.145071 88.554287 C 37.64121 89.517983 36.253553 90.000646 33.978841 90.000646 C 31.49704 90.000646 30.037636 89.322309 29.603892 87.968895 C 29.395173 87.404702 29.290813 86.498078 29.290813 85.247394 L 29.290813 55.601122 C 29.290813 53.786244 29.62509 52.555127 30.293643 51.90288 C 30.97035 51.24411 32.255277 50.913094 34.148425 50.913094 Z M 81.605941 50.432062 C 86.866315 50.432062 91.432046 52.333363 95.303134 56.134334 C 99.184006 59.936936 101.124442 64.659207 101.124442 70.301146 C 101.124442 75.933302 99.275321 80.733842 95.577078 84.701136 C 91.878836 88.658647 87.32615 90.638218 81.919019 90.638218 C 76.520042 90.638218 71.923329 88.684737 68.130511 84.779406 C 64.345846 80.864291 62.454328 76.202354 62.454328 70.795223 C 62.454328 67.843804 62.987541 65.084798 64.055596 62.514944 C 65.123651 59.936936 66.54718 57.774736 68.326185 56.029975 C 70.10519 54.286844 72.149985 52.918755 74.45894 51.92897 C 76.767896 50.931031 79.150229 50.432062 81.605941 50.432062 Z M 71.893978 70.534324 C 71.893978 73.702616 72.913114 76.27247 74.953018 78.242257 C 77.002705 80.213675 79.288832 81.198568 81.81466 81.198568 C 84.340487 81.198568 86.6152 80.239765 88.637167 78.320527 C 90.668917 76.40292 91.684792 73.824912 91.684792 70.586504 C 91.684792 67.349727 90.660764 64.753783 88.611077 62.801932 C 86.571173 60.848452 84.288308 59.871711 81.76248 59.871711 C 79.236652 59.871711 76.958678 60.856605 74.926928 62.828022 C 72.904961 64.797809 71.893978 67.367664 71.893978 70.534324 Z M 114.030786 82.110084 L 128.535136 82.110084 C 129.70592 82.110084 130.557102 82.243795 131.087053 82.512847 C 131.625157 82.773746 131.980632 83.191184 132.153478 83.763531 C 132.336107 84.327725 132.427421 85.082701 132.427421 86.02846 C 132.427421 86.966065 132.336107 87.721041 132.153478 88.295019 C 131.980632 88.859213 131.680598 89.248931 131.255007 89.465803 C 130.5783 89.821278 129.65374 90.000646 128.482956 90.000646 L 109.277533 90.000646 C 106.795732 90.000646 105.337959 89.322309 104.902584 87.968895 C 104.695496 87.404702 104.591136 86.498078 104.591136 85.247394 L 104.591136 55.601122 C 104.591136 54.785813 104.617226 54.1727 104.669406 53.765046 C 104.721586 53.357391 104.889539 52.884512 105.176528 52.346408 C 105.670606 51.390865 107.056631 50.913094 109.329713 50.913094 C 111.821298 50.913094 113.297007 51.568603 113.756842 52.87962 C 113.939471 53.487841 114.030786 54.412401 114.030786 55.653302 Z M 140.634323 50.862545 L 150.502825 50.913094 C 155.658841 50.913094 160.190329 52.771999 164.09566 56.486548 C 168.010774 60.201096 169.967516 64.771719 169.967516 70.196786 C 169.967516 75.61207 168.058062 80.260963 164.239154 84.140204 C 160.420246 88.012922 155.78929 89.948466 150.346286 89.948466 L 140.582144 89.948466 C 138.411791 89.948466 137.061639 89.504938 136.531688 88.619512 C 136.107727 87.864536 135.894116 86.723103 135.894116 85.195214 L 135.894116 55.548942 C 135.894116 54.697759 135.920206 54.078124 135.972386 53.686776 C 136.024565 53.297058 136.19415 52.832332 136.479508 52.294228 C 136.975216 51.338686 138.359611 50.862545 140.634323 50.862545 Z M 150.502825 80.508817 C 153.062896 80.508817 155.371852 79.558166 157.429692 77.656865 C 159.495685 75.755564 160.527867 73.365078 160.527867 70.483775 C 160.527867 67.600842 159.521775 65.192419 157.507962 63.256875 C 155.502301 61.321331 153.149319 60.352744 150.450646 60.352744 L 145.333765 60.352744 L 145.333765 80.508817 Z M 182.877121 80.560996 L 199.294187 80.560996 C 200.11928 80.560996 200.735653 80.587086 201.143308 80.639266 C 201.550962 80.691446 202.02058 80.8594 202.550531 81.146388 C 203.514227 81.640466 203.995259 83.029753 203.995259 85.312618 C 203.995259 87.79605 203.334859 89.248931 202.015689 89.674522 C 201.417252 89.891394 200.492691 90.000646 199.243637 90.000646 L 178.123869 90.000646 C 175.642068 90.000646 174.184295 89.322309 173.74892 87.968895 C 173.541832 87.404702 173.437472 86.498078 173.437472 85.247394 L 173.437472 55.601122 C 173.437472 53.786244 173.771749 52.555127 174.440302 51.90288 C 175.117009 51.24411 176.401936 50.913094 178.293453 50.913094 L 199.294187 50.913094 C 200.11928 50.913094 200.735653 50.939184 201.143308 50.991364 C 201.550962 51.043544 202.02058 51.213128 202.550531 51.500117 C 203.514227 51.994194 203.995259 53.378589 203.995259 55.653302 C 203.995259 58.144887 203.334859 59.602659 202.015689 60.028251 C 201.417252 60.245123 200.492691 60.352744 199.243637 60.352744 L 182.877121 60.352744 L 182.877121 65.730523 L 193.435375 65.730523 C 194.252315 65.730523 194.863797 65.761505 195.271451 65.821838 C 195.679106 65.874017 196.151985 66.03871 196.69172 66.315915 C 197.645632 66.819776 198.123403 68.209063 198.123403 70.483775 C 198.123403 72.973729 197.449957 74.433133 196.104697 74.857094 C 195.498107 75.065813 194.573547 75.170172 193.331015 75.170172 L 182.877121 75.170172 Z M 237.380539 83.385227 C 237.91049 84.670155 238.17465 85.594715 238.17465 86.158909 C 238.17465 87.513953 237.072352 88.650494 234.867756 89.570163 C 233.731215 90.074024 232.814807 90.325139 232.120164 90.325139 C 231.425521 90.325139 230.858065 90.155555 230.414537 89.818017 C 229.97264 89.478848 229.641624 89.131526 229.424752 88.776052 C 229.069277 88.099345 227.684882 84.878874 225.271567 79.114638 L 223.61812 79.232043 L 216.899973 79.232043 L 216.899973 85.247394 C 216.899973 86.072486 216.873883 86.68886 216.821703 87.096515 C 216.769523 87.504169 216.599939 87.973787 216.314581 88.502108 C 215.81072 89.465803 214.421433 89.948466 212.148351 89.948466 C 209.664919 89.948466 208.207146 89.288066 207.773402 87.968895 C 207.564683 87.370459 207.460323 86.445898 207.460323 85.195214 L 207.460323 55.601122 C 207.460323 54.785813 207.486413 54.1727 207.538593 53.765046 C 207.590773 53.357391 207.760357 52.884512 208.045715 52.346408 C 208.541423 51.390865 209.925818 50.913094 212.200531 50.913094 L 223.72248 50.913094 C 226.856528 50.913094 229.897631 52.051266 232.84905 54.324348 C 234.264427 55.428276 235.43195 56.920292 236.351618 58.803656 C 237.281071 60.68702 237.745797 62.783996 237.745797 65.092951 C 237.745797 69.110795 236.411951 72.419319 233.747521 75.013633 C 234.528587 76.896997 235.740137 79.688616 237.380539 83.385227 Z M 216.899973 69.792393 L 223.72248 69.792393 C 224.754661 69.792393 225.783581 69.402675 226.807609 68.621609 C 227.841421 67.830759 228.358327 66.655083 228.358327 65.092951 C 228.358327 63.530819 227.841421 62.350251 226.807609 61.551248 C 225.783581 60.752245 224.720418 60.352744 223.61812 60.352744 L 216.899973 60.352744 Z M 216.899973 69.792393 " stroke="#2d2d29" stroke-width="1.533332" stroke-opacity="1" stroke-miterlimit="4"/></svg>