<svg xmlns="http://www.w3.org/2000/svg" xmlns:xlink="http://www.w3.org/1999/xlink" width="1280" zoomAndPan="magnify" viewBox="0 0 960 299.999988" height="400" preserveAspectRatio="xMidYMid meet" version="1.0"><defs><g/></defs><g fill="#92c7a3" fill-opacity="0.4"><g transform="translate(501.384938, 214.48715)"><g><path d="M 128.953125 -111 C 129.796875 -109.425781 130.296875 -108.007812 130.453125 -106.75 C 130.609375 -105.488281 130.6875 -103.65625 130.6875 -101.25 L 130.6875 -13.859375 C 130.6875 -6.609375 128.691406 -2.359375 124.703125 -1.109375 C 122.710938 -0.472656 120.191406 -0.15625 117.140625 -0.15625 C 114.097656 -0.15625 111.679688 -0.414062 109.890625 -0.9375 C 108.109375 -1.46875 106.742188 -2.097656 105.796875 -2.828125 C 104.859375 -3.566406 104.128906 -4.617188 103.609375 -5.984375 C 103.078125 -7.765625 102.8125 -10.492188 102.8125 -14.171875 L 102.8125 -66.921875 C 100.1875 -63.660156 96.351562 -58.488281 91.3125 -51.40625 C 86.28125 -44.320312 83.082031 -39.882812 81.71875 -38.09375 C 80.351562 -36.3125 79.40625 -35.078125 78.875 -34.390625 C 78.351562 -33.710938 77.066406 -32.769531 75.015625 -31.5625 C 72.972656 -30.363281 70.769531 -29.765625 68.40625 -29.765625 C 66.050781 -29.765625 63.898438 -30.3125 61.953125 -31.40625 C 60.015625 -32.507812 58.625 -33.585938 57.78125 -34.640625 L 56.53125 -36.375 C 54.425781 -39 50.273438 -44.585938 44.078125 -53.140625 C 37.890625 -61.691406 34.535156 -66.285156 34.015625 -66.921875 L 34.015625 -13.859375 C 34.015625 -11.441406 33.929688 -9.628906 33.765625 -8.421875 C 33.609375 -7.210938 33.113281 -5.875 32.28125 -4.40625 C 30.707031 -1.570312 26.613281 -0.15625 20 -0.15625 C 13.59375 -0.15625 9.601562 -1.570312 8.03125 -4.40625 C 7.1875 -5.875 6.6875 -7.238281 6.53125 -8.5 C 6.375 -9.757812 6.296875 -11.648438 6.296875 -14.171875 L 6.296875 -101.5625 C 6.296875 -103.96875 6.375 -105.773438 6.53125 -106.984375 C 6.6875 -108.191406 7.1875 -109.582031 8.03125 -111.15625 C 9.601562 -113.882812 13.695312 -115.25 20.3125 -115.25 C 23.144531 -115.25 25.582031 -114.90625 27.625 -114.21875 C 29.675781 -113.539062 31.015625 -112.835938 31.640625 -112.109375 L 32.59375 -111.15625 L 68.328125 -64.234375 C 86.179688 -87.859375 98.097656 -103.445312 104.078125 -111 C 105.859375 -113.832031 110.082031 -115.25 116.75 -115.25 C 123.414062 -115.25 127.484375 -113.832031 128.953125 -111 Z M 128.953125 -111 "/></g></g></g><g fill="#92c7a3" fill-opacity="0.4"><g transform="translate(640.720662, 214.48715)"><g><path d="M 34.171875 -27.875 L 82.65625 -27.875 C 85.070312 -27.875 86.882812 -27.789062 88.09375 -27.625 C 89.300781 -27.46875 90.691406 -26.972656 92.265625 -26.140625 C 95.097656 -24.671875 96.515625 -20.578125 96.515625 -13.859375 C 96.515625 -6.503906 94.570312 -2.195312 90.6875 -0.9375 C 88.90625 -0.3125 86.175781 0 82.5 0 L 20.15625 0 C 12.800781 0 8.5 -1.992188 7.25 -5.984375 C 6.613281 -7.660156 6.296875 -10.335938 6.296875 -14.015625 L 6.296875 -101.5625 C 6.296875 -106.914062 7.289062 -110.5625 9.28125 -112.5 C 11.28125 -114.4375 15.0625 -115.40625 20.625 -115.40625 L 82.65625 -115.40625 C 85.070312 -115.40625 86.882812 -115.328125 88.09375 -115.171875 C 89.300781 -115.015625 90.691406 -114.519531 92.265625 -113.6875 C 95.097656 -112.21875 96.515625 -108.125 96.515625 -101.40625 C 96.515625 -94.050781 94.570312 -89.742188 90.6875 -88.484375 C 88.90625 -87.859375 86.175781 -87.546875 82.5 -87.546875 L 34.171875 -87.546875 L 34.171875 -71.640625 L 65.34375 -71.640625 C 67.757812 -71.640625 69.566406 -71.5625 70.765625 -71.40625 C 71.972656 -71.25 73.367188 -70.75 74.953125 -69.90625 C 77.785156 -68.4375 79.203125 -64.34375 79.203125 -57.625 C 79.203125 -50.28125 77.207031 -45.976562 73.21875 -44.71875 C 71.425781 -44.082031 68.695312 -43.765625 65.03125 -43.765625 L 34.171875 -43.765625 Z M 34.171875 -27.875 "/></g></g></g><g fill="#92c7a3" fill-opacity="0.4"><g transform="translate(743.52998, 214.48715)"><g><path d="M 34.171875 -27.875 L 82.65625 -27.875 C 85.070312 -27.875 86.882812 -27.789062 88.09375 -27.625 C 89.300781 -27.46875 90.691406 -26.972656 92.265625 -26.140625 C 95.097656 -24.671875 96.515625 -20.578125 96.515625 -13.859375 C 96.515625 -6.503906 94.570312 -2.195312 90.6875 -0.9375 C 88.90625 -0.3125 86.175781 0 82.5 0 L 20.15625 0 C 12.800781 0 8.5 -1.992188 7.25 -5.984375 C 6.613281 -7.660156 6.296875 -10.335938 6.296875 -14.015625 L 6.296875 -101.5625 C 6.296875 -106.914062 7.289062 -110.5625 9.28125 -112.5 C 11.28125 -114.4375 15.0625 -115.40625 20.625 -115.40625 L 82.65625 -115.40625 C 85.070312 -115.40625 86.882812 -115.328125 88.09375 -115.171875 C 89.300781 -115.015625 90.691406 -114.519531 92.265625 -113.6875 C 95.097656 -112.21875 96.515625 -108.125 96.515625 -101.40625 C 96.515625 -94.050781 94.570312 -89.742188 90.6875 -88.484375 C 88.90625 -87.859375 86.175781 -87.546875 82.5 -87.546875 L 34.171875 -87.546875 L 34.171875 -71.640625 L 65.34375 -71.640625 C 67.757812 -71.640625 69.566406 -71.5625 70.765625 -71.40625 C 71.972656 -71.25 73.367188 -70.75 74.953125 -69.90625 C 77.785156 -68.4375 79.203125 -64.34375 79.203125 -57.625 C 79.203125 -50.28125 77.207031 -45.976562 73.21875 -44.71875 C 71.425781 -44.082031 68.695312 -43.765625 65.03125 -43.765625 L 34.171875 -43.765625 Z M 34.171875 -27.875 "/></g></g></g><g fill="#92c7a3" fill-opacity="0.4"><g transform="translate(846.339298, 214.48715)"><g><path d="M 13.859375 -115.578125 L 101.40625 -115.578125 C 104.757812 -115.578125 107.222656 -115.179688 108.796875 -114.390625 C 110.367188 -113.597656 111.414062 -112.363281 111.9375 -110.6875 C 112.46875 -109.007812 112.734375 -106.804688 112.734375 -104.078125 C 112.734375 -101.347656 112.46875 -99.171875 111.9375 -97.546875 C 111.414062 -95.921875 110.523438 -94.789062 109.265625 -94.15625 C 107.378906 -93.207031 104.707031 -92.734375 101.25 -92.734375 L 71.171875 -92.734375 L 71.171875 -13.546875 C 71.171875 -11.128906 71.09375 -9.34375 70.9375 -8.1875 C 70.78125 -7.03125 70.304688 -5.691406 69.515625 -4.171875 C 68.722656 -2.648438 67.328125 -1.570312 65.328125 -0.9375 C 63.335938 -0.3125 60.71875 0 57.46875 0 C 54.21875 0 51.617188 -0.3125 49.671875 -0.9375 C 47.734375 -1.570312 46.367188 -2.648438 45.578125 -4.171875 C 44.796875 -5.691406 44.320312 -7.054688 44.15625 -8.265625 C 44 -9.472656 43.921875 -11.285156 43.921875 -13.703125 L 43.921875 -92.734375 L 13.703125 -92.734375 C 10.335938 -92.734375 7.867188 -93.128906 6.296875 -93.921875 C 4.722656 -94.710938 3.671875 -95.945312 3.140625 -97.625 C 2.617188 -99.300781 2.359375 -101.503906 2.359375 -104.234375 C 2.359375 -106.960938 2.617188 -109.140625 3.140625 -110.765625 C 3.671875 -112.390625 4.566406 -113.519531 5.828125 -114.15625 C 7.710938 -115.101562 10.390625 -115.578125 13.859375 -115.578125 Z M 13.859375 -115.578125 "/></g></g></g><g fill="#496452" fill-opacity="1"><g transform="translate(498.879938, 211.982164)"><g><path d="M 128.953125 -111 C 129.796875 -109.425781 130.296875 -108.007812 130.453125 -106.75 C 130.609375 -105.488281 130.6875 -103.65625 130.6875 -101.25 L 130.6875 -13.859375 C 130.6875 -6.609375 128.691406 -2.359375 124.703125 -1.109375 C 122.710938 -0.472656 120.191406 -0.15625 117.140625 -0.15625 C 114.097656 -0.15625 111.679688 -0.414062 109.890625 -0.9375 C 108.109375 -1.46875 106.742188 -2.097656 105.796875 -2.828125 C 104.859375 -3.566406 104.128906 -4.617188 103.609375 -5.984375 C 103.078125 -7.765625 102.8125 -10.492188 102.8125 -14.171875 L 102.8125 -66.921875 C 100.1875 -63.660156 96.351562 -58.488281 91.3125 -51.40625 C 86.28125 -44.320312 83.082031 -39.882812 81.71875 -38.09375 C 80.351562 -36.3125 79.40625 -35.078125 78.875 -34.390625 C 78.351562 -33.710938 77.066406 -32.769531 75.015625 -31.5625 C 72.972656 -30.363281 70.769531 -29.765625 68.40625 -29.765625 C 66.050781 -29.765625 63.898438 -30.3125 61.953125 -31.40625 C 60.015625 -32.507812 58.625 -33.585938 57.78125 -34.640625 L 56.53125 -36.375 C 54.425781 -39 50.273438 -44.585938 44.078125 -53.140625 C 37.890625 -61.691406 34.535156 -66.285156 34.015625 -66.921875 L 34.015625 -13.859375 C 34.015625 -11.441406 33.929688 -9.628906 33.765625 -8.421875 C 33.609375 -7.210938 33.113281 -5.875 32.28125 -4.40625 C 30.707031 -1.570312 26.613281 -0.15625 20 -0.15625 C 13.59375 -0.15625 9.601562 -1.570312 8.03125 -4.40625 C 7.1875 -5.875 6.6875 -7.238281 6.53125 -8.5 C 6.375 -9.757812 6.296875 -11.648438 6.296875 -14.171875 L 6.296875 -101.5625 C 6.296875 -103.96875 6.375 -105.773438 6.53125 -106.984375 C 6.6875 -108.191406 7.1875 -109.582031 8.03125 -111.15625 C 9.601562 -113.882812 13.695312 -115.25 20.3125 -115.25 C 23.144531 -115.25 25.582031 -114.90625 27.625 -114.21875 C 29.675781 -113.539062 31.015625 -112.835938 31.640625 -112.109375 L 32.59375 -111.15625 L 68.328125 -64.234375 C 86.179688 -87.859375 98.097656 -103.445312 104.078125 -111 C 105.859375 -113.832031 110.082031 -115.25 116.75 -115.25 C 123.414062 -115.25 127.484375 -113.832031 128.953125 -111 Z M 128.953125 -111 "/></g></g></g><g fill="#496452" fill-opacity="1"><g transform="translate(638.215662, 211.982164)"><g><path d="M 34.171875 -27.875 L 82.65625 -27.875 C 85.070312 -27.875 86.882812 -27.789062 88.09375 -27.625 C 89.300781 -27.46875 90.691406 -26.972656 92.265625 -26.140625 C 95.097656 -24.671875 96.515625 -20.578125 96.515625 -13.859375 C 96.515625 -6.503906 94.570312 -2.195312 90.6875 -0.9375 C 88.90625 -0.3125 86.175781 0 82.5 0 L 20.15625 0 C 12.800781 0 8.5 -1.992188 7.25 -5.984375 C 6.613281 -7.660156 6.296875 -10.335938 6.296875 -14.015625 L 6.296875 -101.5625 C 6.296875 -106.914062 7.289062 -110.5625 9.28125 -112.5 C 11.28125 -114.4375 15.0625 -115.40625 20.625 -115.40625 L 82.65625 -115.40625 C 85.070312 -115.40625 86.882812 -115.328125 88.09375 -115.171875 C 89.300781 -115.015625 90.691406 -114.519531 92.265625 -113.6875 C 95.097656 -112.21875 96.515625 -108.125 96.515625 -101.40625 C 96.515625 -94.050781 94.570312 -89.742188 90.6875 -88.484375 C 88.90625 -87.859375 86.175781 -87.546875 82.5 -87.546875 L 34.171875 -87.546875 L 34.171875 -71.640625 L 65.34375 -71.640625 C 67.757812 -71.640625 69.566406 -71.5625 70.765625 -71.40625 C 71.972656 -71.25 73.367188 -70.75 74.953125 -69.90625 C 77.785156 -68.4375 79.203125 -64.34375 79.203125 -57.625 C 79.203125 -50.28125 77.207031 -45.976562 73.21875 -44.71875 C 71.425781 -44.082031 68.695312 -43.765625 65.03125 -43.765625 L 34.171875 -43.765625 Z M 34.171875 -27.875 "/></g></g></g><g fill="#496452" fill-opacity="1"><g transform="translate(741.02498, 211.982164)"><g><path d="M 34.171875 -27.875 L 82.65625 -27.875 C 85.070312 -27.875 86.882812 -27.789062 88.09375 -27.625 C 89.300781 -27.46875 90.691406 -26.972656 92.265625 -26.140625 C 95.097656 -24.671875 96.515625 -20.578125 96.515625 -13.859375 C 96.515625 -6.503906 94.570312 -2.195312 90.6875 -0.9375 C 88.90625 -0.3125 86.175781 0 82.5 0 L 20.15625 0 C 12.800781 0 8.5 -1.992188 7.25 -5.984375 C 6.613281 -7.660156 6.296875 -10.335938 6.296875 -14.015625 L 6.296875 -101.5625 C 6.296875 -106.914062 7.289062 -110.5625 9.28125 -112.5 C 11.28125 -114.4375 15.0625 -115.40625 20.625 -115.40625 L 82.65625 -115.40625 C 85.070312 -115.40625 86.882812 -115.328125 88.09375 -115.171875 C 89.300781 -115.015625 90.691406 -114.519531 92.265625 -113.6875 C 95.097656 -112.21875 96.515625 -108.125 96.515625 -101.40625 C 96.515625 -94.050781 94.570312 -89.742188 90.6875 -88.484375 C 88.90625 -87.859375 86.175781 -87.546875 82.5 -87.546875 L 34.171875 -87.546875 L 34.171875 -71.640625 L 65.34375 -71.640625 C 67.757812 -71.640625 69.566406 -71.5625 70.765625 -71.40625 C 71.972656 -71.25 73.367188 -70.75 74.953125 -69.90625 C 77.785156 -68.4375 79.203125 -64.34375 79.203125 -57.625 C 79.203125 -50.28125 77.207031 -45.976562 73.21875 -44.71875 C 71.425781 -44.082031 68.695312 -43.765625 65.03125 -43.765625 L 34.171875 -43.765625 Z M 34.171875 -27.875 "/></g></g></g><g fill="#496452" fill-opacity="1"><g transform="translate(843.834298, 211.982164)"><g><path d="M 13.859375 -115.578125 L 101.40625 -115.578125 C 104.757812 -115.578125 107.222656 -115.179688 108.796875 -114.390625 C 110.367188 -113.597656 111.414062 -112.363281 111.9375 -110.6875 C 112.46875 -109.007812 112.734375 -106.804688 112.734375 -104.078125 C 112.734375 -101.347656 112.46875 -99.171875 111.9375 -97.546875 C 111.414062 -95.921875 110.523438 -94.789062 109.265625 -94.15625 C 107.378906 -93.207031 104.707031 -92.734375 101.25 -92.734375 L 71.171875 -92.734375 L 71.171875 -13.546875 C 71.171875 -11.128906 71.09375 -9.34375 70.9375 -8.1875 C 70.78125 -7.03125 70.304688 -5.691406 69.515625 -4.171875 C 68.722656 -2.648438 67.328125 -1.570312 65.328125 -0.9375 C 63.335938 -0.3125 60.71875 0 57.46875 0 C 54.21875 0 51.617188 -0.3125 49.671875 -0.9375 C 47.734375 -1.570312 46.367188 -2.648438 45.578125 -4.171875 C 44.796875 -5.691406 44.320312 -7.054688 44.15625 -8.265625 C 44 -9.472656 43.921875 -11.285156 43.921875 -13.703125 L 43.921875 -92.734375 L 13.703125 -92.734375 C 10.335938 -92.734375 7.867188 -93.128906 6.296875 -93.921875 C 4.722656 -94.710938 3.671875 -95.945312 3.140625 -97.625 C 2.617188 -99.300781 2.359375 -101.503906 2.359375 -104.234375 C 2.359375 -106.960938 2.617188 -109.140625 3.140625 -110.765625 C 3.671875 -112.390625 4.566406 -113.519531 5.828125 -114.15625 C 7.710938 -115.101562 10.390625 -115.578125 13.859375 -115.578125 Z M 13.859375 -115.578125 "/></g></g></g><g fill="#ffffff" fill-opacity="1"><g transform="translate(0.0000192, 207.749983)"><g><path d="M 34.171875 -27.875 L 82.65625 -27.875 C 85.070312 -27.875 86.882812 -27.789062 88.09375 -27.625 C 89.300781 -27.46875 90.691406 -26.972656 92.265625 -26.140625 C 95.097656 -24.671875 96.515625 -20.578125 96.515625 -13.859375 C 96.515625 -6.503906 94.570312 -2.195312 90.6875 -0.9375 C 88.90625 -0.3125 86.175781 0 82.5 0 L 20.15625 0 C 12.800781 0 8.5 -1.992188 7.25 -5.984375 C 6.613281 -7.660156 6.296875 -10.335938 6.296875 -14.015625 L 6.296875 -101.5625 C 6.296875 -106.914062 7.289062 -110.5625 9.28125 -112.5 C 11.28125 -114.4375 15.0625 -115.40625 20.625 -115.40625 L 82.65625 -115.40625 C 85.070312 -115.40625 86.882812 -115.328125 88.09375 -115.171875 C 89.300781 -115.015625 90.691406 -114.519531 92.265625 -113.6875 C 95.097656 -112.21875 96.515625 -108.125 96.515625 -101.40625 C 96.515625 -94.050781 94.570312 -89.742188 90.6875 -88.484375 C 88.90625 -87.859375 86.175781 -87.546875 82.5 -87.546875 L 34.171875 -87.546875 L 34.171875 -71.640625 L 65.34375 -71.640625 C 67.757812 -71.640625 69.566406 -71.5625 70.765625 -71.40625 C 71.972656 -71.25 73.367188 -70.75 74.953125 -69.90625 C 77.785156 -68.4375 79.203125 -64.34375 79.203125 -57.625 C 79.203125 -50.28125 77.207031 -45.976562 73.21875 -44.71875 C 71.425781 -44.082031 68.695312 -43.765625 65.03125 -43.765625 L 34.171875 -43.765625 Z M 34.171875 -27.875 "/></g></g></g><g fill="#ffffff" fill-opacity="1"><g transform="translate(102.809337, 207.749983)"><g><path d="M 61.953125 -117.53125 C 62.742188 -119.0625 64.132812 -120.140625 66.125 -120.765625 C 68.125 -121.398438 70.773438 -121.71875 74.078125 -121.71875 C 77.390625 -121.71875 80.039062 -121.398438 82.03125 -120.765625 C 84.03125 -120.140625 85.421875 -119.035156 86.203125 -117.453125 C 86.992188 -115.878906 87.46875 -114.488281 87.625 -113.28125 C 87.78125 -112.082031 87.859375 -110.273438 87.859375 -107.859375 L 87.859375 -13.859375 C 87.859375 -11.441406 87.78125 -9.628906 87.625 -8.421875 C 87.46875 -7.210938 86.96875 -5.875 86.125 -4.40625 C 84.550781 -1.570312 80.113281 -0.15625 72.8125 -0.15625 C 65.519531 -0.15625 61.457031 -2.726562 60.625 -7.875 C 56.207031 -2.832031 50.066406 -0.3125 42.203125 -0.3125 C 32.753906 -0.3125 24.144531 -4.429688 16.375 -12.671875 C 8.601562 -20.910156 4.71875 -30.515625 4.71875 -41.484375 C 4.71875 -52.453125 8.628906 -62.082031 16.453125 -70.375 C 24.273438 -78.664062 32.859375 -82.8125 42.203125 -82.8125 C 49.960938 -82.8125 55.992188 -80.191406 60.296875 -74.953125 L 60.296875 -108.015625 C 60.296875 -110.429688 60.375 -112.238281 60.53125 -113.4375 C 60.695312 -114.644531 61.171875 -116.007812 61.953125 -117.53125 Z M 36.375 -31.96875 C 39.101562 -29.132812 42.40625 -27.71875 46.28125 -27.71875 C 50.164062 -27.71875 53.394531 -29.132812 55.96875 -31.96875 C 58.539062 -34.800781 59.828125 -37.921875 59.828125 -41.328125 C 59.828125 -44.742188 58.59375 -47.921875 56.125 -50.859375 C 53.664062 -53.796875 50.332031 -55.265625 46.125 -55.265625 C 41.925781 -55.265625 38.566406 -53.820312 36.046875 -50.9375 C 33.535156 -48.050781 32.28125 -44.875 32.28125 -41.40625 C 32.28125 -37.945312 33.644531 -34.800781 36.375 -31.96875 Z M 36.375 -31.96875 "/></g></g></g><g fill="#ffffff" fill-opacity="1"><g transform="translate(199.321018, 207.749983)"><g><path d="M 43.140625 -0.3125 C 32.535156 -0.3125 23.742188 -4.328125 16.765625 -12.359375 C 9.785156 -20.390625 6.296875 -30.175781 6.296875 -41.71875 L 6.296875 -69.28125 C 6.296875 -71.800781 6.375 -73.632812 6.53125 -74.78125 C 6.6875 -75.9375 7.132812 -77.304688 7.875 -78.890625 C 9.34375 -81.722656 13.4375 -83.140625 20.15625 -83.140625 C 27.5 -83.140625 31.800781 -81.144531 33.0625 -77.15625 C 33.695312 -75.46875 34.015625 -72.789062 34.015625 -69.125 L 34.015625 -41.5625 C 34.015625 -37.257812 35.242188 -33.898438 37.703125 -31.484375 C 40.171875 -29.078125 43.476562 -27.875 47.625 -27.875 C 51.769531 -27.875 55.128906 -29.128906 57.703125 -31.640625 C 60.273438 -34.160156 61.5625 -37.46875 61.5625 -41.5625 L 61.5625 -69.4375 C 61.5625 -71.851562 61.640625 -73.660156 61.796875 -74.859375 C 61.953125 -76.066406 62.453125 -77.460938 63.296875 -79.046875 C 64.660156 -81.773438 68.703125 -83.140625 75.421875 -83.140625 C 82.035156 -83.140625 86.078125 -81.722656 87.546875 -78.890625 C 88.273438 -77.304688 88.71875 -75.910156 88.875 -74.703125 C 89.039062 -73.503906 89.125 -71.695312 89.125 -69.28125 L 89.125 -13.546875 C 89.125 -11.234375 89.039062 -9.472656 88.875 -8.265625 C 88.71875 -7.054688 88.222656 -5.71875 87.390625 -4.25 C 85.816406 -1.519531 81.773438 -0.15625 75.265625 -0.15625 C 68.859375 -0.15625 64.921875 -1.414062 63.453125 -3.9375 C 62.398438 -5.71875 61.875 -7.867188 61.875 -10.390625 C 61.457031 -9.660156 60.515625 -8.613281 59.046875 -7.25 C 57.578125 -5.882812 56.160156 -4.726562 54.796875 -3.78125 C 51.222656 -1.46875 47.335938 -0.3125 43.140625 -0.3125 Z M 43.140625 -0.3125 "/></g></g></g><g fill="#ffffff" fill-opacity="1"><g transform="translate(297.092212, 207.749983)"><g><path d="M 32.28125 -41.484375 C 32.28125 -37.023438 33.75 -33.5625 36.6875 -31.09375 C 39.625 -28.625 42.742188 -27.390625 46.046875 -27.390625 C 49.359375 -27.390625 52.457031 -28.359375 55.34375 -30.296875 C 58.226562 -32.242188 60.5625 -33.21875 62.34375 -33.21875 C 65.5 -33.21875 69.332031 -30.4375 73.84375 -24.875 C 76.257812 -21.832031 77.46875 -19.101562 77.46875 -16.6875 C 77.46875 -12.695312 74.582031 -8.972656 68.8125 -5.515625 C 62.820312 -1.316406 55.472656 0.78125 46.765625 0.78125 C 37.003906 0.78125 27.609375 -2.734375 18.578125 -9.765625 C 14.273438 -13.117188 10.757812 -17.601562 8.03125 -23.21875 C 5.300781 -28.832031 3.9375 -35.023438 3.9375 -41.796875 C 3.9375 -48.566406 5.300781 -54.707031 8.03125 -60.21875 C 10.757812 -65.726562 14.273438 -70.164062 18.578125 -73.53125 C 27.285156 -80.457031 36.578125 -83.921875 46.453125 -83.921875 C 50.441406 -83.921875 54.320312 -83.367188 58.09375 -82.265625 C 61.875 -81.160156 64.65625 -80.085938 66.4375 -79.046875 L 68.96875 -77.46875 C 70.851562 -76.207031 72.320312 -75.207031 73.375 -74.46875 C 76.101562 -72.375 77.46875 -69.988281 77.46875 -67.3125 C 77.46875 -64.632812 76.363281 -61.613281 74.15625 -58.25 C 70.375 -52.476562 66.753906 -49.59375 63.296875 -49.59375 C 61.296875 -49.59375 58.460938 -50.75 54.796875 -53.0625 C 52.898438 -54.84375 50.191406 -55.734375 46.671875 -55.734375 C 43.160156 -55.734375 39.882812 -54.472656 36.84375 -51.953125 C 33.800781 -49.441406 32.28125 -45.953125 32.28125 -41.484375 Z M 32.28125 -41.484375 "/></g></g></g><g fill="#ffffff" fill-opacity="1"><g transform="translate(380.851124, 207.749983)"><g><path d="M 60.140625 -74.15625 C 60.773438 -80.039062 64.921875 -82.984375 72.578125 -82.984375 C 76.671875 -82.984375 79.710938 -82.664062 81.703125 -82.03125 C 83.703125 -81.40625 85.097656 -80.300781 85.890625 -78.71875 C 86.679688 -77.144531 87.15625 -75.753906 87.3125 -74.546875 C 87.46875 -73.347656 87.546875 -71.539062 87.546875 -69.125 L 87.546875 -14.015625 C 87.546875 -11.597656 87.46875 -9.785156 87.3125 -8.578125 C 87.15625 -7.367188 86.707031 -5.976562 85.96875 -4.40625 C 84.5 -1.675781 80.90625 -0.3125 75.1875 -0.3125 C 69.46875 -0.3125 65.632812 -1.019531 63.6875 -2.4375 C 61.75 -3.851562 60.617188 -5.925781 60.296875 -8.65625 C 56.421875 -3.09375 49.941406 -0.3125 40.859375 -0.3125 C 31.773438 -0.3125 23.347656 -4.457031 15.578125 -12.75 C 7.816406 -21.039062 3.9375 -30.671875 3.9375 -41.640625 C 3.9375 -52.609375 7.84375 -62.210938 15.65625 -70.453125 C 23.476562 -78.691406 32.0625 -82.8125 41.40625 -82.8125 C 44.976562 -82.8125 48.234375 -82.179688 51.171875 -80.921875 C 54.109375 -79.671875 56.15625 -78.492188 57.3125 -77.390625 C 58.46875 -76.285156 59.410156 -75.207031 60.140625 -74.15625 Z M 31.484375 -41.40625 C 31.484375 -37.945312 32.847656 -34.828125 35.578125 -32.046875 C 38.304688 -29.265625 41.613281 -27.875 45.5 -27.875 C 49.382812 -27.875 52.613281 -29.289062 55.1875 -32.125 C 57.757812 -34.957031 59.046875 -38.078125 59.046875 -41.484375 C 59.046875 -44.898438 57.8125 -48.078125 55.34375 -51.015625 C 52.875 -53.953125 49.566406 -55.421875 45.421875 -55.421875 C 41.273438 -55.421875 37.914062 -53.953125 35.34375 -51.015625 C 32.769531 -48.078125 31.484375 -44.875 31.484375 -41.40625 Z M 31.484375 -41.40625 "/></g></g></g></svg>