<svg xmlns="http://www.w3.org/2000/svg" xmlns:xlink="http://www.w3.org/1999/xlink" width="1280" zoomAndPan="magnify" viewBox="0 0 960 299.999988" height="400" preserveAspectRatio="xMidYMid meet" version="1.0"><defs><g/></defs><g fill="#92c7a3" fill-opacity="0.4"><g transform="translate(480.929356, 210.007325)"><g><path d="M 128.953125 -111 C 129.796875 -109.425781 130.296875 -108.007812 130.453125 -106.75 C 130.609375 -105.488281 130.6875 -103.65625 130.6875 -101.25 L 130.6875 -13.859375 C 130.6875 -6.609375 128.691406 -2.359375 124.703125 -1.109375 C 122.710938 -0.472656 120.191406 -0.15625 117.140625 -0.15625 C 114.097656 -0.15625 111.679688 -0.414062 109.890625 -0.9375 C 108.109375 -1.46875 106.742188 -2.097656 105.796875 -2.828125 C 104.859375 -3.566406 104.128906 -4.617188 103.609375 -5.984375 C 103.078125 -7.765625 102.8125 -10.492188 102.8125 -14.171875 L 102.8125 -66.921875 C 100.1875 -63.660156 96.351562 -58.488281 91.3125 -51.40625 C 86.28125 -44.320312 83.082031 -39.882812 81.71875 -38.09375 C 80.351562 -36.3125 79.40625 -35.078125 78.875 -34.390625 C 78.351562 -33.710938 77.066406 -32.769531 75.015625 -31.5625 C 72.972656 -30.363281 70.769531 -29.765625 68.40625 -29.765625 C 66.050781 -29.765625 63.898438 -30.3125 61.953125 -31.40625 C 60.015625 -32.507812 58.625 -33.585938 57.78125 -34.640625 L 56.53125 -36.375 C 54.425781 -39 50.273438 -44.585938 44.078125 -53.140625 C 37.890625 -61.691406 34.535156 -66.285156 34.015625 -66.921875 L 34.015625 -13.859375 C 34.015625 -11.441406 33.929688 -9.628906 33.765625 -8.421875 C 33.609375 -7.210938 33.113281 -5.875 32.28125 -4.40625 C 30.707031 -1.570312 26.613281 -0.15625 20 -0.15625 C 13.59375 -0.15625 9.601562 -1.570312 8.03125 -4.40625 C 7.1875 -5.875 6.6875 -7.238281 6.53125 -8.5 C 6.375 -9.757812 6.296875 -11.648438 6.296875 -14.171875 L 6.296875 -101.5625 C 6.296875 -103.96875 6.375 -105.773438 6.53125 -106.984375 C 6.6875 -108.191406 7.1875 -109.582031 8.03125 -111.15625 C 9.601562 -113.882812 13.695312 -115.25 20.3125 -115.25 C 23.144531 -115.25 25.582031 -114.90625 27.625 -114.21875 C 29.675781 -113.539062 31.015625 -112.835938 31.640625 -112.109375 L 32.59375 -111.15625 L 68.328125 -64.234375 C 86.179688 -87.859375 98.097656 -103.445312 104.078125 -111 C 105.859375 -113.832031 110.082031 -115.25 116.75 -115.25 C 123.414062 -115.25 127.484375 -113.832031 128.953125 -111 Z M 128.953125 -111 "/></g></g></g><g fill="#92c7a3" fill-opacity="0.4"><g transform="translate(620.267333, 210.007325)"><g><path d="M 34.171875 -27.875 L 82.65625 -27.875 C 85.070312 -27.875 86.882812 -27.789062 88.09375 -27.625 C 89.300781 -27.46875 90.691406 -26.972656 92.265625 -26.140625 C 95.097656 -24.671875 96.515625 -20.578125 96.515625 -13.859375 C 96.515625 -6.503906 94.570312 -2.195312 90.6875 -0.9375 C 88.90625 -0.3125 86.175781 0 82.5 0 L 20.15625 0 C 12.800781 0 8.5 -1.992188 7.25 -5.984375 C 6.613281 -7.660156 6.296875 -10.335938 6.296875 -14.015625 L 6.296875 -101.5625 C 6.296875 -106.914062 7.289062 -110.5625 9.28125 -112.5 C 11.28125 -114.4375 15.0625 -115.40625 20.625 -115.40625 L 82.65625 -115.40625 C 85.070312 -115.40625 86.882812 -115.328125 88.09375 -115.171875 C 89.300781 -115.015625 90.691406 -114.519531 92.265625 -113.6875 C 95.097656 -112.21875 96.515625 -108.125 96.515625 -101.40625 C 96.515625 -94.050781 94.570312 -89.742188 90.6875 -88.484375 C 88.90625 -87.859375 86.175781 -87.546875 82.5 -87.546875 L 34.171875 -87.546875 L 34.171875 -71.640625 L 65.34375 -71.640625 C 67.757812 -71.640625 69.566406 -71.5625 70.765625 -71.40625 C 71.972656 -71.25 73.367188 -70.75 74.953125 -69.90625 C 77.785156 -68.4375 79.203125 -64.34375 79.203125 -57.625 C 79.203125 -50.28125 77.207031 -45.976562 73.21875 -44.71875 C 71.425781 -44.082031 68.695312 -43.765625 65.03125 -43.765625 L 34.171875 -43.765625 Z M 34.171875 -27.875 "/></g></g></g><g fill="#92c7a3" fill-opacity="0.4"><g transform="translate(723.078317, 210.007325)"><g><path d="M 34.171875 -27.875 L 82.65625 -27.875 C 85.070312 -27.875 86.882812 -27.789062 88.09375 -27.625 C 89.300781 -27.46875 90.691406 -26.972656 92.265625 -26.140625 C 95.097656 -24.671875 96.515625 -20.578125 96.515625 -13.859375 C 96.515625 -6.503906 94.570312 -2.195312 90.6875 -0.9375 C 88.90625 -0.3125 86.175781 0 82.5 0 L 20.15625 0 C 12.800781 0 8.5 -1.992188 7.25 -5.984375 C 6.613281 -7.660156 6.296875 -10.335938 6.296875 -14.015625 L 6.296875 -101.5625 C 6.296875 -106.914062 7.289062 -110.5625 9.28125 -112.5 C 11.28125 -114.4375 15.0625 -115.40625 20.625 -115.40625 L 82.65625 -115.40625 C 85.070312 -115.40625 86.882812 -115.328125 88.09375 -115.171875 C 89.300781 -115.015625 90.691406 -114.519531 92.265625 -113.6875 C 95.097656 -112.21875 96.515625 -108.125 96.515625 -101.40625 C 96.515625 -94.050781 94.570312 -89.742188 90.6875 -88.484375 C 88.90625 -87.859375 86.175781 -87.546875 82.5 -87.546875 L 34.171875 -87.546875 L 34.171875 -71.640625 L 65.34375 -71.640625 C 67.757812 -71.640625 69.566406 -71.5625 70.765625 -71.40625 C 71.972656 -71.25 73.367188 -70.75 74.953125 -69.90625 C 77.785156 -68.4375 79.203125 -64.34375 79.203125 -57.625 C 79.203125 -50.28125 77.207031 -45.976562 73.21875 -44.71875 C 71.425781 -44.082031 68.695312 -43.765625 65.03125 -43.765625 L 34.171875 -43.765625 Z M 34.171875 -27.875 "/></g></g></g><g fill="#92c7a3" fill-opacity="0.4"><g transform="translate(825.889277, 210.007325)"><g><path d="M 13.859375 -115.578125 L 101.40625 -115.578125 C 104.757812 -115.578125 107.222656 -115.179688 108.796875 -114.390625 C 110.367188 -113.597656 111.414062 -112.363281 111.9375 -110.6875 C 112.46875 -109.007812 112.734375 -106.804688 112.734375 -104.078125 C 112.734375 -101.347656 112.46875 -99.171875 111.9375 -97.546875 C 111.414062 -95.921875 110.523438 -94.789062 109.265625 -94.15625 C 107.378906 -93.207031 104.707031 -92.734375 101.25 -92.734375 L 71.171875 -92.734375 L 71.171875 -13.546875 C 71.171875 -11.128906 71.09375 -9.34375 70.9375 -8.1875 C 70.78125 -7.03125 70.304688 -5.691406 69.515625 -4.171875 C 68.722656 -2.648438 67.328125 -1.570312 65.328125 -0.9375 C 63.335938 -0.3125 60.71875 0 57.46875 0 C 54.21875 0 51.617188 -0.3125 49.671875 -0.9375 C 47.734375 -1.570312 46.367188 -2.648438 45.578125 -4.171875 C 44.796875 -5.691406 44.320312 -7.054688 44.15625 -8.265625 C 44 -9.472656 43.921875 -11.285156 43.921875 -13.703125 L 43.921875 -92.734375 L 13.703125 -92.734375 C 10.335938 -92.734375 7.867188 -93.128906 6.296875 -93.921875 C 4.722656 -94.710938 3.671875 -95.945312 3.140625 -97.625 C 2.617188 -99.300781 2.359375 -101.503906 2.359375 -104.234375 C 2.359375 -106.960938 2.617188 -109.140625 3.140625 -110.765625 C 3.671875 -112.390625 4.566406 -113.519531 5.828125 -114.15625 C 7.710938 -115.101562 10.390625 -115.578125 13.859375 -115.578125 Z M 13.859375 -115.578125 "/></g></g></g><g fill="#92c7a3" fill-opacity="1"><g transform="translate(478.424356, 207.502332)"><g><path d="M 128.953125 -111 C 129.796875 -109.425781 130.296875 -108.007812 130.453125 -106.75 C 130.609375 -105.488281 130.6875 -103.65625 130.6875 -101.25 L 130.6875 -13.859375 C 130.6875 -6.609375 128.691406 -2.359375 124.703125 -1.109375 C 122.710938 -0.472656 120.191406 -0.15625 117.140625 -0.15625 C 114.097656 -0.15625 111.679688 -0.414062 109.890625 -0.9375 C 108.109375 -1.46875 106.742188 -2.097656 105.796875 -2.828125 C 104.859375 -3.566406 104.128906 -4.617188 103.609375 -5.984375 C 103.078125 -7.765625 102.8125 -10.492188 102.8125 -14.171875 L 102.8125 -66.921875 C 100.1875 -63.660156 96.351562 -58.488281 91.3125 -51.40625 C 86.28125 -44.320312 83.082031 -39.882812 81.71875 -38.09375 C 80.351562 -36.3125 79.40625 -35.078125 78.875 -34.390625 C 78.351562 -33.710938 77.066406 -32.769531 75.015625 -31.5625 C 72.972656 -30.363281 70.769531 -29.765625 68.40625 -29.765625 C 66.050781 -29.765625 63.898438 -30.3125 61.953125 -31.40625 C 60.015625 -32.507812 58.625 -33.585938 57.78125 -34.640625 L 56.53125 -36.375 C 54.425781 -39 50.273438 -44.585938 44.078125 -53.140625 C 37.890625 -61.691406 34.535156 -66.285156 34.015625 -66.921875 L 34.015625 -13.859375 C 34.015625 -11.441406 33.929688 -9.628906 33.765625 -8.421875 C 33.609375 -7.210938 33.113281 -5.875 32.28125 -4.40625 C 30.707031 -1.570312 26.613281 -0.15625 20 -0.15625 C 13.59375 -0.15625 9.601562 -1.570312 8.03125 -4.40625 C 7.1875 -5.875 6.6875 -7.238281 6.53125 -8.5 C 6.375 -9.757812 6.296875 -11.648438 6.296875 -14.171875 L 6.296875 -101.5625 C 6.296875 -103.96875 6.375 -105.773438 6.53125 -106.984375 C 6.6875 -108.191406 7.1875 -109.582031 8.03125 -111.15625 C 9.601562 -113.882812 13.695312 -115.25 20.3125 -115.25 C 23.144531 -115.25 25.582031 -114.90625 27.625 -114.21875 C 29.675781 -113.539062 31.015625 -112.835938 31.640625 -112.109375 L 32.59375 -111.15625 L 68.328125 -64.234375 C 86.179688 -87.859375 98.097656 -103.445312 104.078125 -111 C 105.859375 -113.832031 110.082031 -115.25 116.75 -115.25 C 123.414062 -115.25 127.484375 -113.832031 128.953125 -111 Z M 128.953125 -111 "/></g></g></g><g fill="#92c7a3" fill-opacity="1"><g transform="translate(617.762333, 207.502332)"><g><path d="M 34.171875 -27.875 L 82.65625 -27.875 C 85.070312 -27.875 86.882812 -27.789062 88.09375 -27.625 C 89.300781 -27.46875 90.691406 -26.972656 92.265625 -26.140625 C 95.097656 -24.671875 96.515625 -20.578125 96.515625 -13.859375 C 96.515625 -6.503906 94.570312 -2.195312 90.6875 -0.9375 C 88.90625 -0.3125 86.175781 0 82.5 0 L 20.15625 0 C 12.800781 0 8.5 -1.992188 7.25 -5.984375 C 6.613281 -7.660156 6.296875 -10.335938 6.296875 -14.015625 L 6.296875 -101.5625 C 6.296875 -106.914062 7.289062 -110.5625 9.28125 -112.5 C 11.28125 -114.4375 15.0625 -115.40625 20.625 -115.40625 L 82.65625 -115.40625 C 85.070312 -115.40625 86.882812 -115.328125 88.09375 -115.171875 C 89.300781 -115.015625 90.691406 -114.519531 92.265625 -113.6875 C 95.097656 -112.21875 96.515625 -108.125 96.515625 -101.40625 C 96.515625 -94.050781 94.570312 -89.742188 90.6875 -88.484375 C 88.90625 -87.859375 86.175781 -87.546875 82.5 -87.546875 L 34.171875 -87.546875 L 34.171875 -71.640625 L 65.34375 -71.640625 C 67.757812 -71.640625 69.566406 -71.5625 70.765625 -71.40625 C 71.972656 -71.25 73.367188 -70.75 74.953125 -69.90625 C 77.785156 -68.4375 79.203125 -64.34375 79.203125 -57.625 C 79.203125 -50.28125 77.207031 -45.976562 73.21875 -44.71875 C 71.425781 -44.082031 68.695312 -43.765625 65.03125 -43.765625 L 34.171875 -43.765625 Z M 34.171875 -27.875 "/></g></g></g><g fill="#92c7a3" fill-opacity="1"><g transform="translate(720.573317, 207.502332)"><g><path d="M 34.171875 -27.875 L 82.65625 -27.875 C 85.070312 -27.875 86.882812 -27.789062 88.09375 -27.625 C 89.300781 -27.46875 90.691406 -26.972656 92.265625 -26.140625 C 95.097656 -24.671875 96.515625 -20.578125 96.515625 -13.859375 C 96.515625 -6.503906 94.570312 -2.195312 90.6875 -0.9375 C 88.90625 -0.3125 86.175781 0 82.5 0 L 20.15625 0 C 12.800781 0 8.5 -1.992188 7.25 -5.984375 C 6.613281 -7.660156 6.296875 -10.335938 6.296875 -14.015625 L 6.296875 -101.5625 C 6.296875 -106.914062 7.289062 -110.5625 9.28125 -112.5 C 11.28125 -114.4375 15.0625 -115.40625 20.625 -115.40625 L 82.65625 -115.40625 C 85.070312 -115.40625 86.882812 -115.328125 88.09375 -115.171875 C 89.300781 -115.015625 90.691406 -114.519531 92.265625 -113.6875 C 95.097656 -112.21875 96.515625 -108.125 96.515625 -101.40625 C 96.515625 -94.050781 94.570312 -89.742188 90.6875 -88.484375 C 88.90625 -87.859375 86.175781 -87.546875 82.5 -87.546875 L 34.171875 -87.546875 L 34.171875 -71.640625 L 65.34375 -71.640625 C 67.757812 -71.640625 69.566406 -71.5625 70.765625 -71.40625 C 71.972656 -71.25 73.367188 -70.75 74.953125 -69.90625 C 77.785156 -68.4375 79.203125 -64.34375 79.203125 -57.625 C 79.203125 -50.28125 77.207031 -45.976562 73.21875 -44.71875 C 71.425781 -44.082031 68.695312 -43.765625 65.03125 -43.765625 L 34.171875 -43.765625 Z M 34.171875 -27.875 "/></g></g></g><g fill="#92c7a3" fill-opacity="1"><g transform="translate(823.384277, 207.502332)"><g><path d="M 13.859375 -115.578125 L 101.40625 -115.578125 C 104.757812 -115.578125 107.222656 -115.179688 108.796875 -114.390625 C 110.367188 -113.597656 111.414062 -112.363281 111.9375 -110.6875 C 112.46875 -109.007812 112.734375 -106.804688 112.734375 -104.078125 C 112.734375 -101.347656 112.46875 -99.171875 111.9375 -97.546875 C 111.414062 -95.921875 110.523438 -94.789062 109.265625 -94.15625 C 107.378906 -93.207031 104.707031 -92.734375 101.25 -92.734375 L 71.171875 -92.734375 L 71.171875 -13.546875 C 71.171875 -11.128906 71.09375 -9.34375 70.9375 -8.1875 C 70.78125 -7.03125 70.304688 -5.691406 69.515625 -4.171875 C 68.722656 -2.648438 67.328125 -1.570312 65.328125 -0.9375 C 63.335938 -0.3125 60.71875 0 57.46875 0 C 54.21875 0 51.617188 -0.3125 49.671875 -0.9375 C 47.734375 -1.570312 46.367188 -2.648438 45.578125 -4.171875 C 44.796875 -5.691406 44.320312 -7.054688 44.15625 -8.265625 C 44 -9.472656 43.921875 -11.285156 43.921875 -13.703125 L 43.921875 -92.734375 L 13.703125 -92.734375 C 10.335938 -92.734375 7.867188 -93.128906 6.296875 -93.921875 C 4.722656 -94.710938 3.671875 -95.945312 3.140625 -97.625 C 2.617188 -99.300781 2.359375 -101.503906 2.359375 -104.234375 C 2.359375 -106.960938 2.617188 -109.140625 3.140625 -110.765625 C 3.671875 -112.390625 4.566406 -113.519531 5.828125 -114.15625 C 7.710938 -115.101562 10.390625 -115.578125 13.859375 -115.578125 Z M 13.859375 -115.578125 "/></g></g></g><path stroke-linecap="butt" transform="matrix(0.984051, 0, 0, 0.984051, 9.655057, 80.919925)" fill="none" stroke-linejoin="miter" d="M 34.726925 100.677969 L 83.985199 100.677969 C 86.458235 100.677969 88.30805 100.757361 89.530674 100.912173 C 90.753299 101.070956 92.162493 101.57906 93.750317 102.436485 C 96.640157 103.9211 98.085077 108.089138 98.085077 114.93663 C 98.085077 122.383525 96.108236 126.746072 92.146615 128.02427 C 90.352373 128.675278 87.577651 129.000782 83.826416 129.000782 L 20.468265 129.000782 C 13.02137 129.000782 8.646914 126.968367 7.344899 122.907507 C 6.717708 121.212505 6.408082 118.493356 6.408082 114.742121 L 6.408082 25.796185 C 6.408082 20.353917 7.408412 16.654287 9.41304 14.701264 C 11.445454 12.724423 15.299897 11.736002 20.976369 11.736002 L 83.985199 11.736002 C 86.458235 11.736002 88.30805 11.811424 89.530674 11.970206 C 90.753299 12.125019 92.162493 12.633123 93.750317 13.490548 C 96.640157 14.975163 98.085077 19.131293 98.085077 25.954967 C 98.085077 33.425679 96.108236 37.800135 92.146615 39.078333 C 90.352373 39.729341 87.577651 40.054845 83.826416 40.054845 L 34.726925 40.054845 L 34.726925 56.187138 L 66.407986 56.187138 C 68.853235 56.187138 70.691141 56.278438 71.913766 56.461038 C 73.136391 56.615851 74.557493 57.112046 76.173104 57.945653 C 79.035157 59.454086 80.468168 63.622124 80.468168 70.445798 C 80.468168 77.92048 78.451632 82.294936 74.414589 83.569165 C 72.592561 84.196355 69.817838 84.505981 66.094391 84.505981 L 34.726925 84.505981 Z M 167.409477 9.5845 C 168.215298 8.024463 169.636401 6.928865 171.668815 6.305644 C 173.697261 5.654636 176.392592 5.329132 179.75481 5.329132 C 183.113058 5.329132 185.808389 5.654636 187.840804 6.305644 C 189.869249 6.928865 191.278443 8.048281 192.056477 9.663892 C 192.866267 11.251716 193.346584 12.65694 193.505366 13.883534 C 193.683997 15.106159 193.775296 16.944065 193.775296 19.389314 L 193.775296 114.93663 C 193.775296 117.385849 193.683997 119.219785 193.505366 120.44638 C 193.346584 121.669004 192.854359 123.022624 192.020751 124.50724 C 190.40514 127.39708 185.88778 128.842 178.464703 128.842 C 171.069412 128.842 166.941069 126.226059 166.079675 120.990209 C 161.602011 126.122851 155.365831 128.687187 147.371137 128.687187 C 137.760832 128.687187 129.011921 124.50724 121.120435 116.147346 C 113.228949 107.763635 109.283206 97.998516 109.283206 86.851991 C 109.283206 75.705466 113.256736 65.928439 121.199826 57.516941 C 129.142916 49.077656 137.86404 44.858013 147.371137 44.858013 C 155.262623 44.858013 161.395593 47.513649 165.770049 52.82889 L 165.770049 19.234501 C 165.770049 16.785283 165.84547 14.951346 166.004253 13.724752 C 166.159066 12.502127 166.627474 11.12072 167.409477 9.5845 Z M 141.432675 96.537718 C 144.219306 99.403741 147.577554 100.836752 151.511388 100.836752 C 155.46904 100.836752 158.751866 99.403741 161.355898 96.537718 C 163.959929 93.647878 165.261945 90.47223 165.261945 87.006804 C 165.261945 83.545347 164.011534 80.314125 161.510711 77.321077 C 159.009888 74.324059 155.627822 72.827535 151.356576 72.827535 C 147.085329 72.827535 143.671507 74.300241 141.11908 77.241686 C 138.566652 80.18313 137.292423 83.414352 137.292423 86.931382 C 137.292423 90.444443 138.67383 93.647878 141.432675 96.537718 Z M 246.387848 128.687187 C 235.634309 128.687187 226.698829 124.610448 219.593316 116.460941 C 212.507651 108.283647 208.966804 98.335929 208.966804 86.617787 L 208.966804 58.60857 C 208.966804 56.032325 209.046195 54.154723 209.201008 52.983703 C 209.355821 51.812683 209.81232 50.431276 210.566536 48.843452 C 212.051152 45.953612 216.207282 44.508692 223.026986 44.508692 C 230.501668 44.508692 234.876123 46.537137 236.154322 50.601967 C 236.80533 52.292999 237.130834 55.016118 237.130834 58.767352 L 237.130834 86.7726 C 237.130834 91.147055 238.381245 94.560877 240.882068 97.006126 C 243.378922 99.455345 246.741139 100.677969 250.956812 100.677969 C 255.176455 100.677969 258.590276 99.403741 261.194308 96.851313 C 263.822157 94.275069 265.140051 90.912851 265.140051 86.7726 L 265.140051 58.453757 C 265.140051 55.980721 265.215473 54.130906 265.374255 52.904312 C 265.529068 51.681687 266.037172 50.276463 266.894597 48.688639 C 268.276004 45.902007 272.376559 44.508692 279.200233 44.508692 C 285.920699 44.508692 290.021255 45.953612 291.50587 48.843452 C 292.260087 50.431276 292.716586 51.852378 292.871399 53.10279 C 293.030181 54.325414 293.105603 56.163321 293.105603 58.60857 L 293.105603 115.250225 C 293.105603 117.592266 293.030181 119.378568 292.871399 120.601192 C 292.716586 121.823817 292.208482 123.181407 291.351057 124.666022 C 289.759264 127.448684 285.658708 128.842 279.045421 128.842 C 272.535342 128.842 268.537995 127.567771 267.053379 125.015343 C 265.985567 123.193315 265.449677 121.006088 265.449677 118.45366 C 265.009055 119.184059 264.044452 120.251871 262.559837 121.657095 C 261.075221 123.034533 259.630301 124.209523 258.225077 125.170156 C 254.604838 127.516166 250.659095 128.687187 246.387848 128.687187 Z M 334.734381 86.851991 C 334.734381 91.381259 336.218997 94.89829 339.184259 97.399113 C 342.181277 99.899936 345.356925 101.150347 348.715173 101.150347 C 352.07739 101.150347 355.213343 100.173835 358.13097 98.216842 C 361.072414 96.240001 363.45812 95.251581 365.280148 95.251581 C 368.483583 95.251581 372.377721 98.073938 376.958594 103.726592 C 379.407813 106.826818 380.630437 109.597571 380.630437 112.04679 C 380.630437 116.083833 377.700902 119.870793 371.841831 123.415611 C 365.748556 127.659071 358.285783 129.782785 349.45748 129.782785 C 339.537549 129.782785 329.978848 126.214151 320.789316 119.076881 C 316.410891 115.667029 312.830348 111.109974 310.043717 105.405716 C 307.284872 99.701458 305.903465 93.413674 305.903465 86.538396 C 305.903465 79.6393 307.284872 73.387243 310.043717 67.790163 C 312.830348 62.189113 316.410891 57.683662 320.789316 54.27381 C 329.641436 47.243719 339.08105 43.726688 349.108159 43.726688 C 353.169019 43.726688 357.114762 44.286396 360.945388 45.405812 C 364.795861 46.525228 367.638066 47.620827 369.460095 48.688639 L 371.996644 50.288371 C 373.92585 51.56657 375.422374 52.578808 376.490186 53.336994 C 379.24903 55.472617 380.630437 57.894049 380.630437 60.601289 C 380.630437 63.308529 379.511021 66.36906 377.272189 69.782882 C 373.445533 75.66577 369.77369 78.611184 366.25666 78.611184 C 364.224245 78.611184 361.334405 77.436194 357.58317 75.094154 C 355.681751 73.272125 352.934815 72.359127 349.342363 72.359127 C 345.773729 72.359127 342.439298 73.649234 339.343041 76.225478 C 336.270601 78.777905 334.734381 82.318753 334.734381 86.851991 Z M 448.172505 53.646619 C 448.799696 47.660523 453.00346 44.663505 460.791737 44.663505 C 464.955806 44.663505 468.056032 44.989008 470.088447 45.640016 C 472.116893 46.291024 473.526087 47.41044 474.30412 48.998264 C 475.113911 50.590058 475.594227 52.007191 475.75301 53.257603 C 475.907823 54.480227 475.987214 56.318133 475.987214 58.767352 L 475.987214 114.742121 C 475.987214 117.215157 475.907823 119.064973 475.75301 120.287597 C 475.594227 121.514191 475.137728 122.919416 474.383512 124.50724 C 472.898896 127.293871 469.25484 128.687187 463.447373 128.687187 C 457.639906 128.687187 453.745768 127.972666 451.764957 126.539655 C 449.788116 125.078856 448.640913 122.97102 448.327318 120.212175 C 444.369666 125.86086 437.784166 128.687187 428.562877 128.687187 C 419.345558 128.687187 410.775278 124.483422 402.859975 116.071924 C 394.968489 107.632639 391.022746 97.839734 391.022746 86.697178 C 391.022746 75.550653 394.996276 65.797443 402.939366 57.437549 C 410.906273 49.053838 419.631367 44.858013 429.110677 44.858013 C 432.754733 44.858013 436.065346 45.497112 439.030608 46.775311 C 442.027626 48.049539 444.111645 49.248347 445.282665 50.367763 C 446.453686 51.487179 447.418289 52.578808 448.172505 53.646619 Z M 419.031963 86.931382 C 419.031963 90.444443 420.41337 93.624061 423.172215 96.462296 C 425.958846 99.272745 429.317094 100.677969 433.250928 100.677969 C 437.20858 100.677969 440.491406 99.248928 443.095438 96.382905 C 445.723286 93.493065 447.04118 90.313448 447.04118 86.851991 C 447.04118 83.386565 445.77886 80.159312 443.25025 77.162294 C 440.749427 74.169246 437.391179 72.672722 433.171537 72.672722 C 428.979681 72.672722 425.569829 74.169246 422.938011 77.162294 C 420.333979 80.159312 419.031963 83.414352 419.031963 86.931382 Z M 419.031963 86.931382 " stroke="#dfece6" stroke-width="6" stroke-opacity="1" stroke-miterlimit="4"/></svg>