<svg xmlns="http://www.w3.org/2000/svg" xmlns:xlink="http://www.w3.org/1999/xlink" width="1280" zoomAndPan="magnify" viewBox="0 0 960 299.999988" height="400" preserveAspectRatio="xMidYMid meet" version="1.0"><defs><g/></defs><g fill="#92c7a3" fill-opacity="0.4"><g transform="translate(501.384938, 214.239508)"><g><path d="M 128.953125 -111 C 129.796875 -109.425781 130.296875 -108.007812 130.453125 -106.75 C 130.609375 -105.488281 130.6875 -103.65625 130.6875 -101.25 L 130.6875 -13.859375 C 130.6875 -6.609375 128.691406 -2.359375 124.703125 -1.109375 C 122.710938 -0.472656 120.191406 -0.15625 117.140625 -0.15625 C 114.097656 -0.15625 111.679688 -0.414062 109.890625 -0.9375 C 108.109375 -1.46875 106.742188 -2.097656 105.796875 -2.828125 C 104.859375 -3.566406 104.128906 -4.617188 103.609375 -5.984375 C 103.078125 -7.765625 102.8125 -10.492188 102.8125 -14.171875 L 102.8125 -66.921875 C 100.1875 -63.660156 96.351562 -58.488281 91.3125 -51.40625 C 86.28125 -44.320312 83.082031 -39.882812 81.71875 -38.09375 C 80.351562 -36.3125 79.40625 -35.078125 78.875 -34.390625 C 78.351562 -33.710938 77.066406 -32.769531 75.015625 -31.5625 C 72.972656 -30.363281 70.769531 -29.765625 68.40625 -29.765625 C 66.050781 -29.765625 63.898438 -30.3125 61.953125 -31.40625 C 60.015625 -32.507812 58.625 -33.585938 57.78125 -34.640625 L 56.53125 -36.375 C 54.425781 -39 50.273438 -44.585938 44.078125 -53.140625 C 37.890625 -61.691406 34.535156 -66.285156 34.015625 -66.921875 L 34.015625 -13.859375 C 34.015625 -11.441406 33.929688 -9.628906 33.765625 -8.421875 C 33.609375 -7.210938 33.113281 -5.875 32.28125 -4.40625 C 30.707031 -1.570312 26.613281 -0.15625 20 -0.15625 C 13.59375 -0.15625 9.601562 -1.570312 8.03125 -4.40625 C 7.1875 -5.875 6.6875 -7.238281 6.53125 -8.5 C 6.375 -9.757812 6.296875 -11.648438 6.296875 -14.171875 L 6.296875 -101.5625 C 6.296875 -103.96875 6.375 -105.773438 6.53125 -106.984375 C 6.6875 -108.191406 7.1875 -109.582031 8.03125 -111.15625 C 9.601562 -113.882812 13.695312 -115.25 20.3125 -115.25 C 23.144531 -115.25 25.582031 -114.90625 27.625 -114.21875 C 29.675781 -113.539062 31.015625 -112.835938 31.640625 -112.109375 L 32.59375 -111.15625 L 68.328125 -64.234375 C 86.179688 -87.859375 98.097656 -103.445312 104.078125 -111 C 105.859375 -113.832031 110.082031 -115.25 116.75 -115.25 C 123.414062 -115.25 127.484375 -113.832031 128.953125 -111 Z M 128.953125 -111 "/></g></g></g><g fill="#92c7a3" fill-opacity="0.4"><g transform="translate(640.722915, 214.239508)"><g><path d="M 34.171875 -27.875 L 82.65625 -27.875 C 85.070312 -27.875 86.882812 -27.789062 88.09375 -27.625 C 89.300781 -27.46875 90.691406 -26.972656 92.265625 -26.140625 C 95.097656 -24.671875 96.515625 -20.578125 96.515625 -13.859375 C 96.515625 -6.503906 94.570312 -2.195312 90.6875 -0.9375 C 88.90625 -0.3125 86.175781 0 82.5 0 L 20.15625 0 C 12.800781 0 8.5 -1.992188 7.25 -5.984375 C 6.613281 -7.660156 6.296875 -10.335938 6.296875 -14.015625 L 6.296875 -101.5625 C 6.296875 -106.914062 7.289062 -110.5625 9.28125 -112.5 C 11.28125 -114.4375 15.0625 -115.40625 20.625 -115.40625 L 82.65625 -115.40625 C 85.070312 -115.40625 86.882812 -115.328125 88.09375 -115.171875 C 89.300781 -115.015625 90.691406 -114.519531 92.265625 -113.6875 C 95.097656 -112.21875 96.515625 -108.125 96.515625 -101.40625 C 96.515625 -94.050781 94.570312 -89.742188 90.6875 -88.484375 C 88.90625 -87.859375 86.175781 -87.546875 82.5 -87.546875 L 34.171875 -87.546875 L 34.171875 -71.640625 L 65.34375 -71.640625 C 67.757812 -71.640625 69.566406 -71.5625 70.765625 -71.40625 C 71.972656 -71.25 73.367188 -70.75 74.953125 -69.90625 C 77.785156 -68.4375 79.203125 -64.34375 79.203125 -57.625 C 79.203125 -50.28125 77.207031 -45.976562 73.21875 -44.71875 C 71.425781 -44.082031 68.695312 -43.765625 65.03125 -43.765625 L 34.171875 -43.765625 Z M 34.171875 -27.875 "/></g></g></g><g fill="#92c7a3" fill-opacity="0.4"><g transform="translate(743.533899, 214.239508)"><g><path d="M 34.171875 -27.875 L 82.65625 -27.875 C 85.070312 -27.875 86.882812 -27.789062 88.09375 -27.625 C 89.300781 -27.46875 90.691406 -26.972656 92.265625 -26.140625 C 95.097656 -24.671875 96.515625 -20.578125 96.515625 -13.859375 C 96.515625 -6.503906 94.570312 -2.195312 90.6875 -0.9375 C 88.90625 -0.3125 86.175781 0 82.5 0 L 20.15625 0 C 12.800781 0 8.5 -1.992188 7.25 -5.984375 C 6.613281 -7.660156 6.296875 -10.335938 6.296875 -14.015625 L 6.296875 -101.5625 C 6.296875 -106.914062 7.289062 -110.5625 9.28125 -112.5 C 11.28125 -114.4375 15.0625 -115.40625 20.625 -115.40625 L 82.65625 -115.40625 C 85.070312 -115.40625 86.882812 -115.328125 88.09375 -115.171875 C 89.300781 -115.015625 90.691406 -114.519531 92.265625 -113.6875 C 95.097656 -112.21875 96.515625 -108.125 96.515625 -101.40625 C 96.515625 -94.050781 94.570312 -89.742188 90.6875 -88.484375 C 88.90625 -87.859375 86.175781 -87.546875 82.5 -87.546875 L 34.171875 -87.546875 L 34.171875 -71.640625 L 65.34375 -71.640625 C 67.757812 -71.640625 69.566406 -71.5625 70.765625 -71.40625 C 71.972656 -71.25 73.367188 -70.75 74.953125 -69.90625 C 77.785156 -68.4375 79.203125 -64.34375 79.203125 -57.625 C 79.203125 -50.28125 77.207031 -45.976562 73.21875 -44.71875 C 71.425781 -44.082031 68.695312 -43.765625 65.03125 -43.765625 L 34.171875 -43.765625 Z M 34.171875 -27.875 "/></g></g></g><g fill="#92c7a3" fill-opacity="0.4"><g transform="translate(846.344859, 214.239508)"><g><path d="M 13.859375 -115.578125 L 101.40625 -115.578125 C 104.757812 -115.578125 107.222656 -115.179688 108.796875 -114.390625 C 110.367188 -113.597656 111.414062 -112.363281 111.9375 -110.6875 C 112.46875 -109.007812 112.734375 -106.804688 112.734375 -104.078125 C 112.734375 -101.347656 112.46875 -99.171875 111.9375 -97.546875 C 111.414062 -95.921875 110.523438 -94.789062 109.265625 -94.15625 C 107.378906 -93.207031 104.707031 -92.734375 101.25 -92.734375 L 71.171875 -92.734375 L 71.171875 -13.546875 C 71.171875 -11.128906 71.09375 -9.34375 70.9375 -8.1875 C 70.78125 -7.03125 70.304688 -5.691406 69.515625 -4.171875 C 68.722656 -2.648438 67.328125 -1.570312 65.328125 -0.9375 C 63.335938 -0.3125 60.71875 0 57.46875 0 C 54.21875 0 51.617188 -0.3125 49.671875 -0.9375 C 47.734375 -1.570312 46.367188 -2.648438 45.578125 -4.171875 C 44.796875 -5.691406 44.320312 -7.054688 44.15625 -8.265625 C 44 -9.472656 43.921875 -11.285156 43.921875 -13.703125 L 43.921875 -92.734375 L 13.703125 -92.734375 C 10.335938 -92.734375 7.867188 -93.128906 6.296875 -93.921875 C 4.722656 -94.710938 3.671875 -95.945312 3.140625 -97.625 C 2.617188 -99.300781 2.359375 -101.503906 2.359375 -104.234375 C 2.359375 -106.960938 2.617188 -109.140625 3.140625 -110.765625 C 3.671875 -112.390625 4.566406 -113.519531 5.828125 -114.15625 C 7.710938 -115.101562 10.390625 -115.578125 13.859375 -115.578125 Z M 13.859375 -115.578125 "/></g></g></g><g fill="#92c7a3" fill-opacity="1"><g transform="translate(498.879938, 211.734523)"><g><path d="M 128.953125 -111 C 129.796875 -109.425781 130.296875 -108.007812 130.453125 -106.75 C 130.609375 -105.488281 130.6875 -103.65625 130.6875 -101.25 L 130.6875 -13.859375 C 130.6875 -6.609375 128.691406 -2.359375 124.703125 -1.109375 C 122.710938 -0.472656 120.191406 -0.15625 117.140625 -0.15625 C 114.097656 -0.15625 111.679688 -0.414062 109.890625 -0.9375 C 108.109375 -1.46875 106.742188 -2.097656 105.796875 -2.828125 C 104.859375 -3.566406 104.128906 -4.617188 103.609375 -5.984375 C 103.078125 -7.765625 102.8125 -10.492188 102.8125 -14.171875 L 102.8125 -66.921875 C 100.1875 -63.660156 96.351562 -58.488281 91.3125 -51.40625 C 86.28125 -44.320312 83.082031 -39.882812 81.71875 -38.09375 C 80.351562 -36.3125 79.40625 -35.078125 78.875 -34.390625 C 78.351562 -33.710938 77.066406 -32.769531 75.015625 -31.5625 C 72.972656 -30.363281 70.769531 -29.765625 68.40625 -29.765625 C 66.050781 -29.765625 63.898438 -30.3125 61.953125 -31.40625 C 60.015625 -32.507812 58.625 -33.585938 57.78125 -34.640625 L 56.53125 -36.375 C 54.425781 -39 50.273438 -44.585938 44.078125 -53.140625 C 37.890625 -61.691406 34.535156 -66.285156 34.015625 -66.921875 L 34.015625 -13.859375 C 34.015625 -11.441406 33.929688 -9.628906 33.765625 -8.421875 C 33.609375 -7.210938 33.113281 -5.875 32.28125 -4.40625 C 30.707031 -1.570312 26.613281 -0.15625 20 -0.15625 C 13.59375 -0.15625 9.601562 -1.570312 8.03125 -4.40625 C 7.1875 -5.875 6.6875 -7.238281 6.53125 -8.5 C 6.375 -9.757812 6.296875 -11.648438 6.296875 -14.171875 L 6.296875 -101.5625 C 6.296875 -103.96875 6.375 -105.773438 6.53125 -106.984375 C 6.6875 -108.191406 7.1875 -109.582031 8.03125 -111.15625 C 9.601562 -113.882812 13.695312 -115.25 20.3125 -115.25 C 23.144531 -115.25 25.582031 -114.90625 27.625 -114.21875 C 29.675781 -113.539062 31.015625 -112.835938 31.640625 -112.109375 L 32.59375 -111.15625 L 68.328125 -64.234375 C 86.179688 -87.859375 98.097656 -103.445312 104.078125 -111 C 105.859375 -113.832031 110.082031 -115.25 116.75 -115.25 C 123.414062 -115.25 127.484375 -113.832031 128.953125 -111 Z M 128.953125 -111 "/></g></g></g><g fill="#92c7a3" fill-opacity="1"><g transform="translate(638.217915, 211.734523)"><g><path d="M 34.171875 -27.875 L 82.65625 -27.875 C 85.070312 -27.875 86.882812 -27.789062 88.09375 -27.625 C 89.300781 -27.46875 90.691406 -26.972656 92.265625 -26.140625 C 95.097656 -24.671875 96.515625 -20.578125 96.515625 -13.859375 C 96.515625 -6.503906 94.570312 -2.195312 90.6875 -0.9375 C 88.90625 -0.3125 86.175781 0 82.5 0 L 20.15625 0 C 12.800781 0 8.5 -1.992188 7.25 -5.984375 C 6.613281 -7.660156 6.296875 -10.335938 6.296875 -14.015625 L 6.296875 -101.5625 C 6.296875 -106.914062 7.289062 -110.5625 9.28125 -112.5 C 11.28125 -114.4375 15.0625 -115.40625 20.625 -115.40625 L 82.65625 -115.40625 C 85.070312 -115.40625 86.882812 -115.328125 88.09375 -115.171875 C 89.300781 -115.015625 90.691406 -114.519531 92.265625 -113.6875 C 95.097656 -112.21875 96.515625 -108.125 96.515625 -101.40625 C 96.515625 -94.050781 94.570312 -89.742188 90.6875 -88.484375 C 88.90625 -87.859375 86.175781 -87.546875 82.5 -87.546875 L 34.171875 -87.546875 L 34.171875 -71.640625 L 65.34375 -71.640625 C 67.757812 -71.640625 69.566406 -71.5625 70.765625 -71.40625 C 71.972656 -71.25 73.367188 -70.75 74.953125 -69.90625 C 77.785156 -68.4375 79.203125 -64.34375 79.203125 -57.625 C 79.203125 -50.28125 77.207031 -45.976562 73.21875 -44.71875 C 71.425781 -44.082031 68.695312 -43.765625 65.03125 -43.765625 L 34.171875 -43.765625 Z M 34.171875 -27.875 "/></g></g></g><g fill="#92c7a3" fill-opacity="1"><g transform="translate(741.028899, 211.734523)"><g><path d="M 34.171875 -27.875 L 82.65625 -27.875 C 85.070312 -27.875 86.882812 -27.789062 88.09375 -27.625 C 89.300781 -27.46875 90.691406 -26.972656 92.265625 -26.140625 C 95.097656 -24.671875 96.515625 -20.578125 96.515625 -13.859375 C 96.515625 -6.503906 94.570312 -2.195312 90.6875 -0.9375 C 88.90625 -0.3125 86.175781 0 82.5 0 L 20.15625 0 C 12.800781 0 8.5 -1.992188 7.25 -5.984375 C 6.613281 -7.660156 6.296875 -10.335938 6.296875 -14.015625 L 6.296875 -101.5625 C 6.296875 -106.914062 7.289062 -110.5625 9.28125 -112.5 C 11.28125 -114.4375 15.0625 -115.40625 20.625 -115.40625 L 82.65625 -115.40625 C 85.070312 -115.40625 86.882812 -115.328125 88.09375 -115.171875 C 89.300781 -115.015625 90.691406 -114.519531 92.265625 -113.6875 C 95.097656 -112.21875 96.515625 -108.125 96.515625 -101.40625 C 96.515625 -94.050781 94.570312 -89.742188 90.6875 -88.484375 C 88.90625 -87.859375 86.175781 -87.546875 82.5 -87.546875 L 34.171875 -87.546875 L 34.171875 -71.640625 L 65.34375 -71.640625 C 67.757812 -71.640625 69.566406 -71.5625 70.765625 -71.40625 C 71.972656 -71.25 73.367188 -70.75 74.953125 -69.90625 C 77.785156 -68.4375 79.203125 -64.34375 79.203125 -57.625 C 79.203125 -50.28125 77.207031 -45.976562 73.21875 -44.71875 C 71.425781 -44.082031 68.695312 -43.765625 65.03125 -43.765625 L 34.171875 -43.765625 Z M 34.171875 -27.875 "/></g></g></g><g fill="#92c7a3" fill-opacity="1"><g transform="translate(843.839859, 211.734523)"><g><path d="M 13.859375 -115.578125 L 101.40625 -115.578125 C 104.757812 -115.578125 107.222656 -115.179688 108.796875 -114.390625 C 110.367188 -113.597656 111.414062 -112.363281 111.9375 -110.6875 C 112.46875 -109.007812 112.734375 -106.804688 112.734375 -104.078125 C 112.734375 -101.347656 112.46875 -99.171875 111.9375 -97.546875 C 111.414062 -95.921875 110.523438 -94.789062 109.265625 -94.15625 C 107.378906 -93.207031 104.707031 -92.734375 101.25 -92.734375 L 71.171875 -92.734375 L 71.171875 -13.546875 C 71.171875 -11.128906 71.09375 -9.34375 70.9375 -8.1875 C 70.78125 -7.03125 70.304688 -5.691406 69.515625 -4.171875 C 68.722656 -2.648438 67.328125 -1.570312 65.328125 -0.9375 C 63.335938 -0.3125 60.71875 0 57.46875 0 C 54.21875 0 51.617188 -0.3125 49.671875 -0.9375 C 47.734375 -1.570312 46.367188 -2.648438 45.578125 -4.171875 C 44.796875 -5.691406 44.320312 -7.054688 44.15625 -8.265625 C 44 -9.472656 43.921875 -11.285156 43.921875 -13.703125 L 43.921875 -92.734375 L 13.703125 -92.734375 C 10.335938 -92.734375 7.867188 -93.128906 6.296875 -93.921875 C 4.722656 -94.710938 3.671875 -95.945312 3.140625 -97.625 C 2.617188 -99.300781 2.359375 -101.503906 2.359375 -104.234375 C 2.359375 -106.960938 2.617188 -109.140625 3.140625 -110.765625 C 3.671875 -112.390625 4.566406 -113.519531 5.828125 -114.15625 C 7.710938 -115.101562 10.390625 -115.578125 13.859375 -115.578125 Z M 13.859375 -115.578125 "/></g></g></g><path stroke-linecap="butt" transform="matrix(0.75, 0, 0, 0.75, 0.0000192, 80.999993)" fill="none" stroke-linejoin="miter" d="M 45.562478 131.84377 L 110.192692 131.84377 C 113.437484 131.84377 115.864567 131.942728 117.468734 132.151061 C 119.078109 132.354186 120.921859 133.020853 123.005193 134.145853 C 126.79686 136.09377 128.692693 141.56252 128.692693 150.546896 C 128.692693 160.322939 126.098943 166.046897 120.906234 167.718773 C 118.546859 168.572939 114.906234 169.000023 109.989567 169.000023 L 26.854143 169.000023 C 17.083309 169.000023 11.343725 166.333356 9.635392 161.00523 C 8.817683 158.781272 8.406225 155.213563 8.406225 150.291688 L 8.406225 33.588553 C 8.406225 26.447928 9.718725 21.598969 12.354142 19.036469 C 15.015601 16.43751 20.072893 15.140635 27.52081 15.140635 L 110.192692 15.140635 C 113.437484 15.140635 115.864567 15.244802 117.468734 15.447927 C 119.078109 15.651052 120.921859 16.317718 123.005193 17.447927 C 126.79686 19.395844 128.692693 24.843761 128.692693 33.796887 C 128.692693 43.604179 126.098943 49.343763 120.906234 51.015638 C 118.546859 51.869805 114.906234 52.296888 109.989567 52.296888 L 45.562478 52.296888 L 45.562478 73.463556 L 87.13019 73.463556 C 90.338523 73.463556 92.749982 73.583348 94.354149 73.822932 C 95.963524 74.031265 97.822899 74.677098 99.942691 75.770848 C 103.703108 77.755224 105.578108 83.218766 105.578108 92.171891 C 105.578108 101.979184 102.932274 107.718768 97.635399 109.395851 C 95.244774 110.213559 91.604149 110.625018 86.718731 110.625018 L 45.562478 110.625018 Z M 219.645826 12.322926 C 220.708326 10.270843 222.567701 8.838551 225.234368 8.015634 C 227.895826 7.161468 231.432285 6.734384 235.843744 6.734384 C 240.249994 6.734384 243.786453 7.161468 246.45312 8.015634 C 249.114578 8.838551 250.963537 10.307301 251.989578 12.421885 C 253.04687 14.510427 253.677078 16.354177 253.885412 17.958344 C 254.124995 19.56251 254.244787 21.973969 254.244787 25.187511 L 254.244787 150.546896 C 254.244787 153.760438 254.124995 156.171897 253.885412 157.776063 C 253.677078 159.38023 253.031245 161.156272 251.937495 163.104189 C 249.817703 166.901064 243.890619 168.796898 234.151035 168.796898 C 224.447909 168.796898 219.031242 165.359397 217.906242 158.494813 C 212.026033 165.223981 203.843741 168.588564 193.354157 168.588564 C 180.744781 168.588564 169.265613 163.104189 158.911446 152.135438 C 148.557278 141.135437 143.385403 128.322936 143.385403 113.697935 C 143.385403 99.072934 148.593737 86.244808 159.015612 75.208348 C 169.437488 64.135431 180.885406 58.60418 193.354157 58.60418 C 203.708324 58.60418 211.7552 62.088556 217.494784 69.057306 L 217.494784 24.979178 C 217.494784 21.770844 217.598951 19.359385 217.802076 17.755219 C 218.005201 16.145843 218.619784 14.338552 219.645826 12.322926 Z M 185.56249 126.411477 C 189.21874 130.166686 193.630199 132.046895 198.786449 132.046895 C 203.979158 132.046895 208.28645 130.166686 211.703117 126.411477 C 215.119784 122.614602 216.828117 118.447935 216.828117 113.90106 C 216.828117 109.359393 215.187492 105.119809 211.906242 101.192725 C 208.624991 97.265642 204.187491 95.296892 198.583324 95.296892 C 192.979157 95.296892 188.49999 97.229183 185.15624 101.088559 C 181.807281 104.953142 180.130197 109.187518 180.130197 113.802101 C 180.130197 118.411477 181.942698 122.614602 185.56249 126.411477 Z M 323.265626 168.588564 C 309.15625 168.588564 297.437499 163.244814 288.109373 152.546896 C 278.812497 141.817729 274.166663 128.765644 274.166663 113.390643 L 274.166663 76.64064 C 274.166663 73.260431 274.27083 70.802098 274.473955 69.260431 C 274.67708 67.723973 275.276039 65.916681 276.265622 63.828139 C 278.213539 60.036472 283.666664 58.140639 292.61979 58.140639 C 302.421874 58.140639 308.166666 60.807305 309.838541 66.135431 C 310.692708 68.359389 311.119791 71.927098 311.119791 76.848973 L 311.119791 113.593768 C 311.119791 119.33856 312.760417 123.812519 316.041667 127.026061 C 319.317709 130.234394 323.729168 131.84377 329.265626 131.84377 C 334.796877 131.84377 339.276044 130.166686 342.692711 126.817728 C 346.140628 123.437519 347.869794 119.031269 347.869794 113.593768 L 347.869794 76.437515 C 347.869794 73.192723 347.968753 70.76564 348.177086 69.161473 C 348.380211 67.552098 349.046878 65.708348 350.171878 63.625014 C 351.984378 59.968764 357.364587 58.140639 366.317713 58.140639 C 375.135422 58.140639 380.51563 60.036472 382.463547 63.828139 C 383.453131 65.916681 384.052089 67.776056 384.255214 69.416681 C 384.463547 71.020848 384.562506 73.432306 384.562506 76.64064 L 384.562506 150.958354 C 384.562506 154.03648 384.463547 156.375022 384.255214 157.979188 C 384.052089 159.588564 383.385422 161.364605 382.260422 163.312522 C 380.17188 166.968772 374.791672 168.796898 366.114588 168.796898 C 357.57292 168.796898 352.328128 167.119814 350.380211 163.770856 C 348.97917 161.38023 348.276045 158.510438 348.276045 155.16148 C 347.697919 156.119813 346.432294 157.520855 344.484378 159.364605 C 342.536461 161.177105 340.640627 162.713564 338.796877 163.979189 C 334.046877 167.052106 328.869793 168.588564 323.265626 168.588564 Z M 439.177094 113.697935 C 439.177094 119.645852 441.12501 124.255227 445.015636 127.536478 C 448.947928 130.817728 453.114595 132.458353 457.520845 132.458353 C 461.932304 132.458353 466.046887 131.177103 469.875013 128.614603 C 473.734388 126.015644 476.864597 124.718769 479.255222 124.718769 C 483.458347 124.718769 488.567723 128.427103 494.57814 135.838562 C 497.791682 139.90627 499.395849 143.546896 499.395849 146.755229 C 499.395849 152.052105 495.552098 157.026063 487.864598 161.671897 C 479.869805 167.239606 470.078138 170.026064 458.494804 170.026064 C 445.479177 170.026064 432.93751 165.343772 420.880217 155.984397 C 415.135425 151.50523 410.437508 145.526062 406.781258 138.041687 C 403.161466 130.562519 401.348966 122.30731 401.348966 113.286476 C 401.348966 104.234392 403.161466 96.031267 406.781258 88.687516 C 410.437508 81.343765 415.135425 75.432307 420.880217 70.95314 C 432.494801 61.729181 444.880219 57.114597 458.03647 57.114597 C 463.364596 57.114597 468.541679 57.848972 473.567721 59.317722 C 478.619805 60.786472 482.348972 62.223972 484.739597 63.625014 L 488.067723 65.723973 C 490.598973 67.401056 492.562515 68.734389 493.963556 69.723973 C 497.583348 72.526056 499.395849 75.70314 499.395849 79.255224 C 499.395849 82.812516 497.927098 86.822933 494.989598 91.3021 C 489.968764 99.02085 485.145847 102.885434 480.536472 102.885434 C 477.869805 102.885434 474.078138 101.348975 469.156263 98.27085 C 466.661471 95.880225 463.057304 94.682308 458.343762 94.682308 C 453.66147 94.682308 449.286469 96.375017 445.223969 99.760434 C 441.192719 103.104184 439.177094 107.755226 439.177094 113.697935 Z M 588.010439 70.135431 C 588.833356 62.276056 594.348981 58.343764 604.567732 58.343764 C 610.031274 58.343764 614.098983 58.770847 616.76565 59.625014 C 619.427108 60.47918 621.276067 61.953139 622.2969 64.036472 C 623.3594 66.119806 623.989609 67.979181 624.197942 69.619806 C 624.401067 71.229181 624.505234 73.635432 624.505234 76.848973 L 624.505234 150.291688 C 624.505234 153.53648 624.401067 155.963563 624.197942 157.572938 C 623.989609 159.177105 623.39065 161.020855 622.401067 163.104189 C 620.45315 166.760439 615.6719 168.588564 608.052107 168.588564 C 600.432315 168.588564 595.32294 167.651064 592.729189 165.770856 C 590.130231 163.859397 588.625022 161.088564 588.218772 157.468772 C 583.020855 164.880231 574.38023 168.588564 562.28127 168.588564 C 550.187519 168.588564 538.947935 163.072939 528.557309 152.03648 C 518.20835 140.963562 513.031266 128.119811 513.031266 113.49481 C 513.031266 98.869809 518.2396 86.072933 528.661476 75.104182 C 539.114602 64.104181 550.562519 58.60418 563.00002 58.60418 C 567.786479 58.60418 572.125021 59.437514 576.020855 61.114597 C 579.947938 62.786472 582.682314 64.359389 584.218772 65.828139 C 585.755231 67.296889 587.020856 68.734389 588.010439 70.135431 Z M 549.776061 113.802101 C 549.776061 118.411477 551.588561 122.583352 555.208353 126.307311 C 558.864603 129.994811 563.276062 131.84377 568.432312 131.84377 C 573.625021 131.84377 577.932313 129.963561 581.34898 126.203144 C 584.802105 122.411477 586.526064 118.24481 586.526064 113.697935 C 586.526064 109.156268 584.869814 104.916684 581.552105 100.9896 C 578.276063 97.057308 573.864605 95.093767 568.328146 95.093767 C 562.828145 95.093767 558.354187 97.057308 554.901061 100.9896 C 551.484394 104.916684 549.776061 109.187518 549.776061 113.802101 Z M 549.776061 113.802101 " stroke="#92c7a3" stroke-width="7.872413" stroke-opacity="1" stroke-miterlimit="4"/></svg>